<svg width="40" height="41" viewBox="0 0 40 41" fill="none" xmlns="http://www.w3.org/2000/svg">
<path d="M4 40.05C2.9 40.05 1.95833 39.6583 1.175 38.875C0.391667 38.0917 0 37.15 0 36.05V8.05C0 6.95 0.391667 6.00833 1.175 5.225C1.95833 4.44167 2.9 4.05 4 4.05H21.85L17.85 8.05H4V36.05H32V22.15L36 18.15V36.05C36 37.15 35.6083 38.0917 34.825 38.875C34.0417 39.6583 33.1 40.05 32 40.05H4ZM12 28.05V19.55L30.35 1.2C30.75 0.8 31.2 0.5 31.7 0.3C32.2 0.1 32.7 0 33.2 0C33.7333 0 34.2417 0.1 34.725 0.3C35.2083 0.5 35.65 0.8 36.05 1.2L38.85 4.05C39.2167 4.45 39.5 4.89167 39.7 5.375C39.9 5.85833 40 6.35 40 6.85C40 7.35 39.9083 7.84167 39.725 8.325C39.5417 8.80833 39.25 9.25 38.85 9.65L20.5 28.05H12ZM16 24.05H18.8L30.4 12.45L29 11.05L27.55 9.65L16 21.2V24.05Z" fill="#2D3143"/>
</svg>
