<svg width="85" height="65" viewBox="0 0 85 65" fill="none" xmlns="http://www.w3.org/2000/svg">
<path d="M65.5669 15.3043L59.492 32.7609H42.2058L48.2806 15.3043H65.5669ZM36.8307 48.0652H54.1169L48.0421 65.7609H30.7558L36.8307 48.0652ZM75.2357 32.7609L81.3106 15.3043L70.942 0H53.6558L32.5529 15.3043L26.478 32.7609H14.0739L10.0187 48.0652H21.1029L15.0281 65.7609H4.05519L0 81.0652H9.65295L3.45089 99H19.1946L25.3966 81.0652H42.6829L36.4808 99H52.2245L58.4266 81.0652H70.942L74.9972 65.7609H63.7858L69.8606 48.0652H80.9448L85 32.7609H75.2198H75.2357Z" fill="#00FF80"/>
</svg>
