<svg width="17" height="17" viewBox="0 0 17 17" fill="none" xmlns="http://www.w3.org/2000/svg">
<path d="M14.1095 16.9412H2.83165C1.2732 16.9412 0 15.668 0 14.1095V2.83165C0 1.2732 1.2732 0 2.83165 0H14.1095C15.668 0 16.9412 1.2732 16.9412 2.83165V14.1095C16.9412 15.6749 15.6749 16.9412 14.1095 16.9412Z" fill="white"/>
<path d="M8.47433 12.8227C7.31245 12.8227 6.22014 12.3704 5.39917 11.5495C4.5782 10.7285 4.12598 9.63621 4.12598 8.47433C4.12598 7.31245 4.5782 6.22014 5.39917 5.39917C6.22014 4.57821 7.31245 4.12598 8.47433 4.12598C9.63621 4.12598 10.7285 4.57821 11.5495 5.39917C12.3705 6.22014 12.8227 7.31245 12.8227 8.47433C12.8227 9.63621 12.3705 10.7285 11.5495 11.5495C10.7216 12.3704 9.63621 12.8227 8.47433 12.8227ZM8.47433 5.05131C6.58888 5.05131 5.0513 6.58193 5.0513 8.47433C5.0513 10.3598 6.58192 11.8973 8.47433 11.8973C10.3598 11.8973 11.8973 10.3667 11.8973 8.47433C11.8904 6.58888 10.3598 5.05131 8.47433 5.05131Z" fill="#2D3143"/>
<path d="M13.6699 3.98329C14.131 3.98329 14.5048 3.60949 14.5048 3.14838C14.5048 2.68728 14.131 2.31348 13.6699 2.31348C13.2088 2.31348 12.835 2.68728 12.835 3.14838C12.835 3.60949 13.2088 3.98329 13.6699 3.98329Z" fill="#2D3143"/>
</svg>
