<svg width="20" height="20" viewBox="0 0 20 20" fill="none" xmlns="http://www.w3.org/2000/svg">
<path d="M4.46295 6.49951H0.333008V19.6697H4.46295V6.49951Z" fill="white"/>
<path d="M15.6346 6.21417C15.4824 6.19513 15.3206 6.18562 15.1588 6.1761C12.8465 6.08094 11.5428 7.45124 11.086 8.04124C10.9623 8.20301 10.9052 8.29817 10.9052 8.29817V6.53771H6.95605V19.7078H10.9052H11.086C11.086 18.3661 11.086 17.0339 11.086 15.6921C11.086 14.9689 11.086 14.2457 11.086 13.5224C11.086 12.6279 11.0194 11.6763 11.4666 10.858C11.8473 10.1728 12.5324 9.83024 13.3032 9.83024C15.5871 9.83024 15.6346 11.8952 15.6346 12.0855C15.6346 12.095 15.6346 12.1046 15.6346 12.1046V19.7649H19.7646V11.172C19.7646 8.23156 18.2706 6.49964 15.6346 6.21417Z" fill="white"/>
<path d="M2.39803 4.79606C3.72242 4.79606 4.79606 3.72243 4.79606 2.39803C4.79606 1.07363 3.72242 0 2.39803 0C1.07363 0 0 1.07363 0 2.39803C0 3.72243 1.07363 4.79606 2.39803 4.79606Z" fill="white"/>
</svg>
