<svg xmlns="http://www.w3.org/2000/svg" version="1.1" xmlns:xlink="http://www.w3.org/1999/xlink" width="1000" height="1000"><g clip-path="url(#SvgjsClipPath1101)"><rect width="1000" height="1000" fill="#ffffff"></rect><g transform="matrix(5.084745762711864,0,0,5.084745762711864,50,400.8474576271186)"><svg xmlns="http://www.w3.org/2000/svg" version="1.1" xmlns:xlink="http://www.w3.org/1999/xlink" width="177" height="39"><svg width="177" height="39" viewBox="0 0 177 39" fill="none" xmlns="http://www.w3.org/2000/svg">
<path d="M15.6557 3.67498L14.2052 7.86676H10.0777L11.5282 3.67498H15.6557ZM8.79421 11.5417H12.9217L11.4712 15.7909H7.3437L8.79421 11.5417ZM17.9643 7.86676L19.4149 3.67498L16.9391 0H12.8116L7.77278 3.67498L6.32226 7.86676H3.36048L2.39221 11.5417H5.03883L3.58831 15.7909H0.968274L0 19.4659H2.30487L0.823984 23.7725H4.58317L6.06406 19.4659H10.1916L8.71067 23.7725H12.4699L13.9507 19.4659H16.9391L17.9074 15.7909H15.2304L16.6809 11.5417H19.3275L20.2958 7.86676H17.9605H17.9643Z" fill="#00FF80"></path>
<path d="M19.9844 20.3234L23.2879 17.5098C24.8523 19.2324 26.5914 20.1511 28.8697 20.1511C30.6354 20.1511 31.915 19.3204 31.915 18.0572C31.915 17.081 31.205 16.5068 28.528 15.4158C25.9383 14.3516 23.6296 12.9467 23.6296 9.99135C23.6296 5.88763 27.2749 3.36108 31.5467 3.36108C34.9642 3.36108 37.326 4.54013 39.0081 6.347L35.9894 9.39034C34.4781 7.98543 33.1415 7.23895 31.205 7.23895C29.2684 7.23895 28.3001 8.27254 28.3001 9.2755C28.3001 10.3397 29.0976 10.7953 31.8011 11.9169C34.5351 13.0385 36.5855 14.4166 36.5855 17.3413C36.5855 21.5599 32.8567 24.029 28.6685 24.029C24.8257 24.029 21.864 22.7657 19.9844 20.3272V20.3234Z" fill="#2D3143"></path>
<path d="M41.8827 8.35293H46.2114L42.1105 23.7419H37.7817L41.8827 8.35293ZM47.2936 1.57718L50.9389 3.21178L46.3557 6.65707H42.7104L47.2936 1.57718Z" fill="#2D3143"></path>
<path d="M47.1797 20.9818C47.1797 20.3502 47.2936 19.7492 47.4645 19.0601L49.3137 12.0853H47.4911L48.4859 8.35293H50.3085L51.3604 4.41763H55.6891L54.6373 8.35293H58.2256L57.2308 12.0853H53.6424L51.9337 18.5472C51.8768 18.7769 51.8198 19.064 51.8198 19.2362C51.8198 19.8104 52.1919 20.155 52.9893 20.155C53.6728 20.155 54.4968 19.9827 55.2107 19.6688L54.2158 23.3706C53.3615 23.7725 52.2527 24.0022 51.0832 24.0022C48.4631 24.0022 47.1835 22.6815 47.1835 20.9857L47.1797 20.9818ZM58.199 0.769447H61.5861V0.857495L58.3395 6.74129H56.6308L58.1952 0.769447H58.199Z" fill="#2D3143"></path>
<path d="M57.6294 16.9623C57.6294 12.3686 61.5595 8.06199 66.4578 8.06199C70.984 8.06199 73.8053 11.0747 73.8053 15.1823C73.8053 19.776 69.8752 24.0826 64.9769 24.0826C60.4507 24.0826 57.6294 21.0661 57.6294 16.9623ZM69.5601 15.2971C69.5601 13.0577 68.2197 11.7944 66.2565 11.7944C63.6099 11.7944 61.8708 14.6655 61.8708 16.8475C61.8708 19.0295 63.2112 20.3502 65.1743 20.3502C67.821 20.3502 69.5601 17.4791 69.5601 15.2971Z" fill="#2D3143"></path>
<path d="M75.5708 8.35292H80.0135L80.697 18.6008L86.761 8.35292H91.4011L81.3501 23.8568H77.42L75.5708 8.35292Z" fill="#2D3143"></path>
<path d="M94.8225 2.78303H99.1513L96.2465 13.6357L102.424 8.35292H108.063L100.689 14.3516L104.019 23.7381H99.1779L97.0135 17.2226L94.8225 19.0027L93.5695 23.7419H89.2407L94.8225 2.78303Z" fill="#2D3143"></path>
<path d="M105.386 19.8908C105.386 16.3307 108.264 14.3516 111.963 14.3516C113.615 14.3516 114.982 14.6387 116.265 15.0406L116.322 14.8416C116.409 14.497 116.493 14.1525 116.493 13.6931C116.493 12.6289 115.752 11.8863 113.618 11.8863C112.138 11.8863 110.657 12.2576 109.548 12.717L108.864 9.27167C110.429 8.61324 112.365 8.18066 114.53 8.18066C118.631 8.18066 120.708 9.90331 120.708 12.916C120.708 13.7199 120.567 14.4664 120.366 15.2435L118.118 23.7419H113.93L114.385 21.9618C113.163 23.2825 111.625 24.029 109.829 24.029C107.182 24.029 105.386 22.3064 105.386 19.8947V19.8908ZM115.525 17.9385L115.639 17.5366C114.898 17.2494 113.846 16.9891 112.791 16.9891C110.995 16.9891 109.688 17.9079 109.688 19.4008C109.688 20.3502 110.455 21.0393 111.682 21.0393C113.478 21.0393 115.042 19.6037 115.525 17.9385Z" fill="#2D3143"></path>
<path d="M123.358 19.1444H127.971L126.749 23.7381H122.135L123.358 19.1444Z" fill="#00FF80"></path>
<path d="M134.294 8.35293H138.623L138.198 9.96073C139.28 8.98456 140.647 8.06582 142.356 8.06582C145.09 8.06582 146.855 9.75784 146.855 12.5447C146.855 13.406 146.601 14.497 146.343 15.4732L144.152 23.7419H139.823L142.071 15.3009C142.185 14.8722 142.272 14.298 142.272 13.9228C142.272 12.6902 141.501 12.0279 140.165 12.0279C138.456 12.0279 137.347 13.2606 136.861 15.098L134.552 23.7381H130.224L134.294 8.3491V8.35293Z" fill="#00FF80"></path>
<path d="M152.433 17.5672C152.574 19.3779 153.656 20.5837 155.934 20.5837C157.073 20.5837 158.068 20.2392 159.321 19.3511L161.315 22.0499C159.948 23.1983 158.041 24.0903 155.448 24.0903C151.062 24.0903 148.385 21.5063 148.385 17.2571C148.385 13.0079 151.974 8.06964 157.441 8.06964C161.398 8.06964 163.676 10.6536 163.676 14.0683C163.676 15.1593 163.392 16.3958 162.906 17.571H152.425L152.433 17.5672ZM152.832 14.8416H159.465C159.549 14.5545 159.606 14.2099 159.606 13.8386C159.606 12.5753 158.865 11.5724 157.1 11.5724C155.137 11.5724 153.542 12.8931 152.828 14.8454L152.832 14.8416Z" fill="#00FF80"></path>
<path d="M165.362 20.9818C165.362 20.3502 165.476 19.7492 165.647 19.0601L167.496 12.0853H165.674L166.669 8.35293H168.491L169.547 4.41763H173.876L172.82 8.35293H176.408L175.413 12.0853H171.825L170.116 18.5472C170.059 18.7769 170.002 19.064 170.002 19.2362C170.002 19.8104 170.375 20.155 171.172 20.155C171.855 20.155 172.679 19.9827 173.393 19.6688L172.398 23.3706C171.544 23.7725 170.435 24.0022 169.266 24.0022C166.646 24.0022 165.366 22.6815 165.366 20.9857L165.362 20.9818Z" fill="#00FF80"></path>
<path d="M20.7211 37.2168L21.1388 36.7192C21.7615 37.2896 22.3615 37.5729 23.1892 37.5729C24.017 37.5729 24.522 37.1441 24.522 36.5469V36.5278C24.522 35.9689 24.2221 35.6511 22.9652 35.3832C21.5906 35.0808 20.9565 34.6329 20.9565 33.6414V33.6261C20.9565 32.6767 21.7843 31.98 22.9234 31.98C23.7968 31.98 24.4195 32.2288 25.0271 32.7226L24.6322 33.2471C24.0778 32.7916 23.5196 32.5925 22.9044 32.5925C22.126 32.5925 21.6324 33.0212 21.6324 33.5648V33.5801C21.6324 34.1505 21.94 34.4683 23.2576 34.7515C24.5904 35.0425 25.2055 35.5363 25.2055 36.4589V36.4742C25.2055 37.5078 24.3512 38.1815 23.1627 38.1815C22.2134 38.1815 21.4349 37.8638 20.7173 37.2168H20.7211Z" fill="#2D3143"></path>
<path d="M26.9219 32.0642H29.1622C30.514 32.0642 31.4025 32.7877 31.4025 33.9783V33.9936C31.4025 35.2951 30.3241 35.9651 29.0521 35.9651H27.5978V38.0935H26.9219V32.0642ZM29.0749 35.3487C30.0659 35.3487 30.7152 34.8128 30.7152 34.0204V34.0051C30.7152 33.1437 30.0735 32.6959 29.109 32.6959H27.5978V35.3487H29.0749Z" fill="#2D3143"></path>
<path d="M32.9629 32.0642H37.2879V32.6844H33.6388V34.7439H36.9043V35.364H33.6388V37.4733H37.3296V38.0935H32.9629V32.0642Z" fill="#2D3143"></path>
<path d="M38.7651 35.0961V35.0808C38.7651 33.3734 40.0296 31.9609 41.7915 31.9609C42.8775 31.9609 43.5268 32.3475 44.1229 32.9179L43.6597 33.4194C43.1546 32.937 42.5927 32.5925 41.7801 32.5925C40.4549 32.5925 39.4638 33.6797 39.4638 35.0654V35.0846C39.4638 36.4818 40.4625 37.5729 41.7801 37.5729C42.6003 37.5729 43.1395 37.2551 43.7128 36.7039L44.1571 37.1441C43.5344 37.7834 42.8509 38.2045 41.7649 38.2045C40.0372 38.2045 38.7651 36.834 38.7651 35.1037V35.0961Z" fill="#2D3143"></path>
<path d="M45.7368 32.0642H46.4127V38.0935H45.7368V32.0642Z" fill="#2D3143"></path>
<path d="M50.7185 32.0221H51.3527L54.079 38.0973H53.3538L52.6513 36.5048H49.3933L48.6833 38.0973H47.9922L50.7185 32.0221ZM52.3855 35.8923L51.0261 32.8145L49.6591 35.8923H52.3855Z" fill="#2D3143"></path>
<path d="M55.5864 32.0642H56.2623V37.4657H59.6304V38.0935H55.5864V32.0642Z" fill="#2D3143"></path>
<path d="M61.2749 32.0642H61.9508V38.0935H61.2749V32.0642Z" fill="#2D3143"></path>
<path d="M63.6517 37.2168L64.0694 36.7192C64.6922 37.2896 65.2921 37.5729 66.1199 37.5729C66.9477 37.5729 67.4527 37.1441 67.4527 36.5469V36.5278C67.4527 35.9689 67.1527 35.6511 65.8959 35.3832C64.5213 35.0808 63.8872 34.6329 63.8872 33.6414V33.6261C63.8872 32.6767 64.7149 31.98 65.8541 31.98C66.7274 31.98 67.3502 32.2288 67.9577 32.7226L67.5628 33.2471C67.0084 32.7916 66.4502 32.5925 65.8351 32.5925C65.0567 32.5925 64.5631 33.0212 64.5631 33.5648V33.5801C64.5631 34.1505 64.8706 34.4683 66.1882 34.7515C67.521 35.0425 68.1362 35.5363 68.1362 36.4589V36.4742C68.1362 37.5078 67.2818 38.1815 66.0933 38.1815C65.144 38.1815 64.3656 37.8638 63.6479 37.2168H63.6517Z" fill="#2D3143"></path>
<path d="M71.307 32.692H69.2983V32.0642H73.9992V32.692H71.9905V38.0935H71.307V32.692Z" fill="#2D3143"></path>
<path d="M75.5938 32.0642H79.9187V32.6844H76.2696V34.7439H79.5352V35.364H76.2696V37.4733H79.9605V38.0935H75.5938V32.0642ZM78.3467 30.4181L79.0226 30.7282L78.0391 31.5283H77.4923L78.3467 30.4181Z" fill="#2D3143"></path>
<path d="M84.5552 32.0642H85.1893L88.9599 36.8991V32.0642H89.6168V38.0935H89.0776L85.2159 33.1476V38.0935H84.559V32.0642H84.5552Z" fill="#2D3143"></path>
<path d="M93.8543 32.0221H94.4884L97.2148 38.0973H96.4895L95.787 36.5048H92.5291L91.819 38.0973H91.1279L93.8543 32.0221ZM95.5212 35.8923L94.1619 32.8145L92.7949 35.8923H95.5212Z" fill="#2D3143"></path>
<path d="M101.244 37.2168L101.661 36.7192C102.284 37.2896 102.884 37.5729 103.712 37.5729C104.539 37.5729 105.044 37.1441 105.044 36.5469V36.5278C105.044 35.9689 104.745 35.6511 103.488 35.3832C102.113 35.0808 101.479 34.6329 101.479 33.6414V33.6261C101.479 32.6767 102.307 31.98 103.446 31.98C104.319 31.98 104.942 32.2288 105.55 32.7226L105.155 33.2471C104.6 32.7916 104.042 32.5925 103.427 32.5925C102.648 32.5925 102.155 33.0212 102.155 33.5648V33.5801C102.155 34.1505 102.462 34.4683 103.78 34.7515C105.113 35.0425 105.728 35.5363 105.728 36.4589V36.4742C105.728 37.5078 104.874 38.1815 103.685 38.1815C102.736 38.1815 101.957 37.8638 101.24 37.2168H101.244Z" fill="#2D3143"></path>
<path d="M107.498 32.0642H108.173V38.0935H107.498V32.0642ZM108.42 30.4181L109.096 30.7282L108.113 31.5283H107.566L108.42 30.4181Z" fill="#2D3143"></path>
<path d="M111.845 32.692H109.836V32.0642H114.537V32.692H112.529V38.0935H111.845V32.692Z" fill="#2D3143"></path>
<path d="M116.14 32.0642H120.465V32.6844H116.816V34.7439H120.081V35.364H116.816V37.4733H120.506V38.0935H116.14V32.0642ZM118.619 31.5283H118.004L117.062 30.51H117.678L118.319 31.0268L118.961 30.51H119.561L118.619 31.5283Z" fill="#2D3143"></path>
</svg></svg></g></g><defs><clipPath id="SvgjsClipPath1101"><rect width="1000" height="1000" x="0" y="0" rx="250" ry="250"></rect></clipPath></defs></svg>
