<?xml version="1.0" encoding="utf-8"?>
<!-- Generator: Adobe Illustrator 22.0.0, SVG Export Plug-In . SVG Version: 6.00 Build 0)  -->
<svg version="1.1" id="Vrstva_1" xmlns="http://www.w3.org/2000/svg" xmlns:xlink="http://www.w3.org/1999/xlink" x="0px" y="0px"
	 viewBox="0 0 338.7 100" style="enable-background:new 0 0 338.7 100;" xml:space="preserve">
<style type="text/css">
	.st0{fill:#000;}
	.st1{fill:#FFFFFF;}
</style>
<g>
	<path class="st0" d="M131.5,27.9c0-0.5,0.4-0.9,0.9-0.9h16.2c2.4,0,4.6,0.2,6.8,0.7c2.1,0.4,4,1.2,5.6,2.2c1.6,1.1,2.8,2.5,3.8,4.3
		c0.9,1.8,1.4,4.1,1.4,6.8c0,2.7-0.4,5-1.3,6.8c-0.9,1.8-2.1,3.3-3.6,4.4c-1.5,1.1-3.3,1.9-5.4,2.3c-2.1,0.5-4.3,0.7-6.8,0.7h-6.5
		c-0.5,0-0.9,0.4-0.9,0.9v16.1c0,0.5-0.4,0.9-0.9,0.9h-8.3c-0.5,0-0.9-0.4-0.9-0.9V27.9z M141.7,45.5c0,0.5,0.4,0.9,0.9,0.9h5.8
		c0.9,0,1.8-0.1,2.6-0.3c0.8-0.2,1.6-0.5,2.3-0.9c0.7-0.4,1.2-1,1.6-1.7c0.4-0.7,0.6-1.6,0.6-2.7c0-1.2-0.3-2.1-0.8-2.8
		c-0.5-0.7-1.2-1.3-2.1-1.7c-0.8-0.4-1.8-0.6-2.8-0.8c-1-0.1-2-0.2-3-0.2h-4.3c-0.5,0-0.9,0.4-0.9,0.9V45.5z"/>
	<path class="st0" d="M189.9,60.7h-14.1c-0.5,0-0.9-0.4-0.9-0.9v-5.9c0-0.5,0.4-0.9,0.9-0.9h14.1c0.5,0,0.9,0.4,0.9,0.9v5.9
		C190.9,60.3,190.5,60.7,189.9,60.7"/>
	<path class="st0" d="M206.2,27h8.3c0.5,0,0.9,0.4,0.9,0.9v34.8c0,0.5,0.4,0.9,0.9,0.9h16.9c0.5,0,0.9,0.4,0.9,0.9v7.5
		c0,0.5-0.4,0.9-0.9,0.9h-27.1c-0.5,0-0.9-0.4-0.9-0.9V27.9C205.3,27.4,205.7,27,206.2,27"/>
	<path class="st0" d="M263.8,27h7.2c0.4,0,0.7,0.2,0.9,0.6L291,71.7c0.3,0.6-0.2,1.3-0.9,1.3h-9.4c-0.4,0-0.7-0.2-0.9-0.6l-3.5-8.6
		c-0.1-0.4-0.5-0.6-0.9-0.6h-16.6c-0.4,0-0.7,0.2-0.9,0.6l-3.4,8.6c-0.1,0.4-0.5,0.6-0.9,0.6h-9.1c-0.7,0-1.1-0.7-0.9-1.3l19.1-44.2
		C263.1,27.2,263.4,27,263.8,27 M266.2,42.6L262,53.4c-0.2,0.6,0.2,1.3,0.9,1.3h8.5c0.7,0,1.1-0.7,0.9-1.3L268,42.6
		C267.6,41.8,266.5,41.8,266.2,42.6"/>
	<path class="st0" d="M302.5,27.9c0-0.5,0.4-0.9,0.9-0.9h16.2c2,0,4,0.1,6,0.4c2,0.3,3.8,0.8,5.4,1.7c1.6,0.8,2.9,2,3.9,3.5
		c1,1.5,1.5,3.5,1.5,6.1c0,2.6-0.7,4.8-2.2,6.5c-1.5,1.7-3.4,2.9-5.8,3.7V49c1.5,0.2,2.9,0.6,4.1,1.3c1.2,0.6,2.3,1.4,3.2,2.4
		c0.9,1,1.6,2.1,2,3.4c0.5,1.3,0.7,2.7,0.7,4.2c0,2.4-0.5,4.5-1.6,6.1c-1,1.6-2.4,2.9-4,3.9c-1.6,1-3.5,1.7-5.6,2.2
		c-2.1,0.4-4.1,0.6-6.2,0.6h-17.9c-0.5,0-0.9-0.4-0.9-0.9V27.9z M312.6,44.4c0,0.5,0.4,0.9,0.9,0.9h6.4c0.8,0,1.6-0.1,2.3-0.3
		c0.8-0.2,1.4-0.5,2.1-0.8c0.6-0.4,1.1-0.9,1.5-1.6c0.4-0.7,0.6-1.4,0.6-2.3c0-1-0.2-1.7-0.6-2.4c-0.4-0.6-0.9-1.1-1.6-1.5
		c-0.7-0.3-1.4-0.6-2.2-0.7c-0.8-0.2-1.6-0.2-2.4-0.2h-6c-0.5,0-0.9,0.4-0.9,0.9V44.4z M312.6,63.5c0,0.5,0.4,0.9,0.9,0.9h8.2
		c0.8,0,1.6-0.1,2.4-0.3c0.8-0.2,1.5-0.5,2.2-0.9c0.7-0.4,1.2-1,1.6-1.7c0.4-0.7,0.6-1.5,0.6-2.5c0-1.1-0.3-2-0.8-2.6
		c-0.5-0.7-1.2-1.2-2.1-1.5c-0.8-0.3-1.7-0.6-2.7-0.7c-1-0.1-1.8-0.2-2.7-0.2h-6.7c-0.5,0-0.9,0.4-0.9,0.9V63.5z"/>
	<rect class="st0" width="100" height="100"/>
	<path class="st1" d="M50,40.6l10,23.1H40L50,40.6z M74.2,73L54.1,27h-8.4L25.8,73H74.2z"/>
</g>
</svg>
