<?xml version="1.0" encoding="utf-8"?>
<!-- Generator: Adobe Illustrator 15.0.0, SVG Export Plug-In . SVG Version: 6.00 Build 0)  -->
<!DOCTYPE svg PUBLIC "-//W3C//DTD SVG 1.1//EN" "http://www.w3.org/Graphics/SVG/1.1/DTD/svg11.dtd">
<svg version="1.1" id="Layer_1" xmlns="http://www.w3.org/2000/svg" xmlns:xlink="http://www.w3.org/1999/xlink" x="0px" y="0px"
	 width="195.504px" height="164.422px" viewBox="0 0 195.504 164.422" enable-background="new 0 0 195.504 164.422"
	 xml:space="preserve">
<g>
	<defs>
		<path id="SVGID_1_" d="M194.945,138.41c-0.129,0.654-0.193,1.328-0.396,1.958c-0.809,2.501-2.727,3.761-5.123,4.393
			c-2.975,0.784-5.863,0.504-8.639-0.866c-1.645-0.811-1.813-0.712-2.039,1.09c-0.006,0.043-0.027,0.082-0.053,0.158h-0.998v-8.135
			c1.412-0.168,1.412-0.168,1.609,1.064c0.588,3.636,3.342,5.825,7.098,5.667c1.277-0.054,2.502-0.255,3.559-1.033
			c1.465-1.078,1.518-3.021,0.082-4.137c-1.197-0.931-2.668-1.229-4.082-1.653c-1.457-0.438-2.941-0.807-4.346-1.376
			c-1.764-0.715-3.219-1.876-3.66-3.851c-0.756-3.387,0.623-6.441,4.365-7.739c2.93-1.016,5.82-0.838,8.604,0.597
			c1.414,0.729,1.473,0.689,1.611-0.877c0.008-0.086,0.035-0.171,0.061-0.295h1.174v7.275h-1.256
			c-0.17-0.725-0.262-1.445-0.506-2.107c-0.834-2.269-2.588-3.426-4.898-3.629c-1.203-0.107-2.477,0-3.652,0.285
			c-1.656,0.402-2.408,1.754-2.027,3.193c0.213,0.803,0.756,1.373,1.49,1.631c1.686,0.593,3.418,1.047,5.104,1.635
			c1.391,0.483,2.805,0.961,4.096,1.652c1.715,0.918,2.625,2.463,2.717,4.447c0.008,0.174,0.07,0.346,0.107,0.518V138.41z"/>
	</defs>
	<clipPath id="SVGID_2_">
		<use xlink:href="#SVGID_1_"  overflow="visible"/>
	</clipPath>
	<g clip-path="url(#SVGID_2_)">
		<defs>
			<rect id="SVGID_3_" x="-543.455" y="-166.13" width="885.252" height="497.71"/>
		</defs>
		<clipPath id="SVGID_4_">
			<use xlink:href="#SVGID_3_"  overflow="visible"/>
		</clipPath>
		<rect x="174.457" y="120.066" clip-path="url(#SVGID_4_)" fill="#231F20" width="23.729" height="28.367"/>
	</g>
</g>
<g>
	<defs>
		<path id="SVGID_5_" d="M15.535,116.631c-0.783,0.136-1.516,0.225-2.229,0.396c-0.898,0.215-1.426,0.804-1.527,1.746
			c-0.026,0.245-0.091,0.491-0.091,0.735c-0.006,2.93-0.004,5.859-0.004,8.848h11.298c0.009-0.198,0.027-0.415,0.027-0.633
			c0.002-2.637,0.005-5.274,0-7.912c-0.004-2.107-0.729-2.883-2.826-3.047c-0.331-0.025-0.663-0.047-1.024-0.072v-1.412h14.426
			v1.355c-0.782,0.13-1.563,0.208-2.316,0.396c-1.058,0.264-1.536,0.879-1.64,1.961c-0.025,0.27-0.023,0.541-0.023,0.812
			c0,6.808-0.007,13.616,0.006,20.425c0.004,2.068,0.614,2.709,2.675,2.938c0.423,0.047,0.845,0.105,1.355,0.17
			c0,0.226,0.004,0.467-0.001,0.706c-0.005,0.219-0.02,0.438-0.031,0.69H19.172v-1.373c0.65-0.107,1.293-0.182,1.92-0.324
			c1.275-0.29,1.828-0.756,1.855-2.035c0.077-3.553,0.026-7.109,0.026-10.701h-11.3v0.653c0,2.954-0.004,5.907,0.002,8.86
			c0.006,2.557,0.59,3.191,3.15,3.447c0.221,0.021,0.444,0.031,0.706,0.049v1.402H1.182v-1.354c0.717-0.116,1.428-0.192,2.121-0.353
			c1.177-0.271,1.74-0.931,1.754-2.139c0.039-3.426,0.045-6.853,0.05-10.279c0.006-3.607-0.013-7.214-0.003-10.82
			c0.005-2.011-0.578-2.731-2.949-3.002c-0.309-0.035-0.62-0.043-0.974-0.066v-1.41h14.354V116.631z"/>
	</defs>
	<clipPath id="SVGID_6_">
		<use xlink:href="#SVGID_5_"  overflow="visible"/>
	</clipPath>
	<g clip-path="url(#SVGID_6_)">
		<defs>
			<rect id="SVGID_7_" x="-543.455" y="-166.13" width="885.252" height="497.71"/>
		</defs>
		<clipPath id="SVGID_8_">
			<use xlink:href="#SVGID_7_"  overflow="visible"/>
		</clipPath>
		<rect x="-2.059" y="112.039" clip-path="url(#SVGID_8_)" fill="#231F20" width="38.94" height="35.934"/>
	</g>
</g>
<g>
	<defs>
		<path id="SVGID_9_" d="M97.913,137.844h1.436c-0.133,1.537-0.165,3.047-0.424,4.515c-0.194,1.099-1.058,1.811-2.066,2.252
			c-1.398,0.612-2.864,0.749-4.35,0.404c-1.883-0.437-2.861-1.64-3.206-3.853c-0.022-0.148-0.033-0.3-0.061-0.548
			c-0.338,0.554-0.597,1.045-0.916,1.493c-1.454,2.042-3.52,2.918-5.945,3.061c-1.558,0.092-3.037-0.16-4.362-1.065
			c-2.562-1.751-3.046-6.526,0.167-8.692c1.904-1.285,4.035-1.92,6.229-2.391c1.378-0.295,2.783-0.462,4.17-0.719
			c0.184-0.034,0.475-0.268,0.471-0.402c-0.034-1.482-0.03-2.975-0.214-4.443c-0.154-1.23-0.874-2.205-2.124-2.537
			c-1.483-0.393-2.916-0.191-4.092,0.889c-0.706,0.648-0.799,1.832-0.217,2.666c0.382,0.545,0.891,1.001,1.38,1.539
			c-0.145,1.176-1.806,2.461-3.782,2.365c-1.424-0.07-2.524-0.653-3.033-2.045c-0.572-1.564-0.282-3.018,0.807-4.273
			c1.139-1.314,2.669-1.945,4.314-2.308c2.577-0.569,5.167-0.608,7.732,0.059c3.063,0.796,4.891,2.993,4.988,6.155
			c0.099,3.199,0.052,6.402,0.082,9.604c0.006,0.65,0.012,1.313,0.126,1.95c0.157,0.878,0.639,1.249,1.415,1.239
			c0.745-0.01,1.222-0.374,1.337-1.238c0.121-0.909,0.101-1.838,0.136-2.759C97.921,138.473,97.913,138.184,97.913,137.844
			 M89.052,133.5c-1.416,0.408-2.781,0.674-4.043,1.191c-2.439,1.002-3.191,2.426-2.894,5.047c0.171,1.504,1.168,2.389,2.668,2.34
			c1.46-0.047,2.459-0.844,3.199-2.035C89.203,138.08,89.116,135.901,89.052,133.5"/>
	</defs>
	<clipPath id="SVGID_10_">
		<use xlink:href="#SVGID_9_"  overflow="visible"/>
	</clipPath>
	<g clip-path="url(#SVGID_10_)">
		<defs>
			<rect id="SVGID_11_" x="-543.455" y="-166.13" width="885.252" height="497.71"/>
		</defs>
		<clipPath id="SVGID_12_">
			<use xlink:href="#SVGID_11_"  overflow="visible"/>
		</clipPath>
		<rect x="72.694" y="120.076" clip-path="url(#SVGID_12_)" fill="#231F20" width="29.896" height="28.364"/>
	</g>
</g>
<g>
	<defs>
		<path id="SVGID_13_" d="M58.742,125.42v-1.653h3.521c0-0.692-0.005-1.316,0.001-1.94c0.024-2.661,0.886-4.983,2.819-6.848
			c1.405-1.357,3.129-2.084,5.031-2.368c1.94-0.289,3.863-0.19,5.668,0.665c1.611,0.764,2.717,1.938,2.913,3.825
			c0.242,2.328-1.816,4.274-4.01,3.698c-0.472-0.125-0.946-0.434-1.298-0.781c-0.704-0.695-0.671-0.971-0.002-1.696
			c0.676-0.733,1.158-1.539,1.076-2.593c-0.058-0.752-0.432-1.291-1.107-1.559c-1.659-0.654-3.744-0.335-4.572,1.799
			c-0.272,0.703-0.414,1.469-0.529,2.219c-0.09,0.574-0.054,1.168-0.058,1.754c-0.006,1.238-0.002,2.477-0.002,3.725h5.571v1.817
			h-5.52c-0.015,0.132-0.049,0.302-0.049,0.472c-0.001,4.87-0.008,9.74,0.009,14.609c0.007,1.99,0.54,2.541,2.533,2.702
			c0.377,0.03,0.759,0.005,1.191,0.005v1.44H59.347v-1.343c0.512-0.076,1.023-0.119,1.519-0.233
			c0.803-0.184,1.186-0.621,1.277-1.446c0.067-0.604,0.109-1.213,0.111-1.819c0.009-4.599,0.006-9.198,0.005-13.798
			c0-0.197-0.021-0.395-0.035-0.652H58.742z"/>
	</defs>
	<clipPath id="SVGID_14_">
		<use xlink:href="#SVGID_13_"  overflow="visible"/>
	</clipPath>
	<g clip-path="url(#SVGID_14_)">
		<defs>
			<rect id="SVGID_15_" x="-543.455" y="-166.13" width="885.252" height="497.71"/>
		</defs>
		<clipPath id="SVGID_16_">
			<use xlink:href="#SVGID_15_"  overflow="visible"/>
		</clipPath>
		<rect x="55.501" y="109.223" clip-path="url(#SVGID_16_)" fill="#231F20" width="26.454" height="38.73"/>
	</g>
</g>
<g>
	<defs>
		<path id="SVGID_17_" d="M163.256,123.38c3.982,0.054,7.189,1.554,9.217,5.128c2.402,4.239,1.656,10.475-1.68,13.734
			c-2.502,2.445-5.582,3.208-8.984,2.848c-2.645-0.28-4.908-1.345-6.684-3.371c-1.26-1.439-2.014-3.125-2.342-4.997
			c-0.453-2.606-0.299-5.162,0.846-7.583c1.732-3.662,4.736-5.436,8.686-5.755C162.627,123.358,162.941,123.38,163.256,123.38
			 M167.486,134.29c-0.07-1.214-0.09-2.433-0.225-3.638c-0.178-1.588-0.475-3.159-1.426-4.507c-1.242-1.759-3.701-1.94-5.012-0.24
			c-0.646,0.838-1.098,1.915-1.344,2.954c-0.742,3.145-0.674,6.346-0.27,9.531c0.18,1.402,0.508,2.785,1.354,3.975
			c1.295,1.816,3.846,1.893,5.166,0.1c0.441-0.601,0.771-1.32,1.002-2.034C167.371,138.439,167.457,136.369,167.486,134.29"/>
	</defs>
	<clipPath id="SVGID_18_">
		<use xlink:href="#SVGID_17_"  overflow="visible"/>
	</clipPath>
	<g clip-path="url(#SVGID_18_)">
		<defs>
			<rect id="SVGID_19_" x="-543.455" y="-166.13" width="885.252" height="497.71"/>
		</defs>
		<clipPath id="SVGID_20_">
			<use xlink:href="#SVGID_19_"  overflow="visible"/>
		</clipPath>
		<rect x="149.307" y="120.131" clip-path="url(#SVGID_20_)" fill="#231F20" width="27.814" height="28.283"/>
	</g>
</g>
<g>
	<defs>
		<path id="SVGID_21_" d="M42.19,133.766c0.05,2.442,0.086,4.806,1.248,6.958c0.76,1.409,1.971,2.266,3.559,2.495
			c2.941,0.426,5.587-0.463,6.844-2.979c0.372-0.744,0.525-1.598,0.799-2.461h1.306c-0.057,1.648-0.609,3.076-1.611,4.332
			c-1.362,1.706-3.208,2.578-5.307,2.901c-2.551,0.394-5.061,0.196-7.435-0.915c-3.308-1.549-5.072-4.248-5.615-7.789
			c-0.389-2.539-0.177-5.041,0.949-7.381c1.671-3.477,4.544-5.214,8.313-5.535c1.851-0.156,3.684-0.018,5.425,0.705
			c3.017,1.254,4.445,3.705,4.987,6.783c0.162,0.922,0.198,1.865,0.301,2.885H42.19z M49.735,132.157
			c-0.002-1.859-0.074-3.63-0.687-5.326c-0.41-1.137-1.153-1.937-2.409-2.062c-1.246-0.123-2.246,0.371-2.912,1.438
			c-1.131,1.811-1.328,3.852-1.449,5.95H49.735z"/>
	</defs>
	<clipPath id="SVGID_22_">
		<use xlink:href="#SVGID_21_"  overflow="visible"/>
	</clipPath>
	<g clip-path="url(#SVGID_22_)">
		<defs>
			<rect id="SVGID_23_" x="-543.455" y="-166.13" width="885.252" height="497.71"/>
		</defs>
		<clipPath id="SVGID_24_">
			<use xlink:href="#SVGID_23_"  overflow="visible"/>
		</clipPath>
		<rect x="32.557" y="120.095" clip-path="url(#SVGID_24_)" fill="#231F20" width="26.635" height="28.345"/>
	</g>
</g>
<g>
	<defs>
		<path id="SVGID_25_" d="M116.644,145.155h-1.025v-8.148c1.408-0.163,1.408-0.163,1.608,1.068c0.591,3.64,3.345,5.823,7.1,5.663
			c1.278-0.055,2.503-0.256,3.56-1.035c1.461-1.076,1.509-3.023,0.073-4.138c-1.198-0.929-2.67-1.226-4.084-1.65
			c-1.456-0.437-2.942-0.807-4.346-1.378c-1.763-0.717-3.217-1.879-3.655-3.855c-0.754-3.393,0.638-6.442,4.374-7.734
			c2.932-1.013,5.821-0.832,8.605,0.604c1.41,0.728,1.453,0.696,1.603-0.892c0.009-0.086,0.039-0.17,0.066-0.289h1.169v7.283h-1.299
			c-0.069-0.417-0.122-0.857-0.219-1.287c-0.579-2.551-2.545-4.322-5.154-4.462c-1.213-0.065-2.479,0.011-3.653,0.298
			c-1.655,0.406-2.402,1.765-2.013,3.201c0.218,0.803,0.765,1.367,1.499,1.625c1.686,0.591,3.412,1.063,5.108,1.625
			c1.166,0.387,2.348,0.764,3.454,1.289c2.117,1.006,3.305,2.682,3.36,5.1c0.056,2.424-0.85,4.339-2.913,5.638
			c-2.144,1.35-4.526,1.645-6.991,1.438c-1.559-0.131-3.014-0.641-4.409-1.342c-1.304-0.654-1.55-0.516-1.774,0.939
			C116.668,144.848,116.661,144.98,116.644,145.155"/>
	</defs>
	<clipPath id="SVGID_26_">
		<use xlink:href="#SVGID_25_"  overflow="visible"/>
	</clipPath>
	<g clip-path="url(#SVGID_26_)">
		<defs>
			<rect id="SVGID_27_" x="-543.455" y="-166.13" width="885.252" height="497.71"/>
		</defs>
		<clipPath id="SVGID_28_">
			<use xlink:href="#SVGID_27_"  overflow="visible"/>
		</clipPath>
		<rect x="112.378" y="120.066" clip-path="url(#SVGID_28_)" fill="#231F20" width="23.639" height="28.353"/>
	</g>
</g>
<g>
	<defs>
		<path id="SVGID_29_" d="M149.689,125.483h-5.33v0.685c0,4.215-0.006,8.43,0.004,12.645c0.004,0.721,0.047,1.442,0.119,2.158
			c0.107,1.063,0.758,1.721,1.689,1.777c1.156,0.068,1.85-0.408,2.063-1.559c0.152-0.836,0.195-1.697,0.236-2.549
			c0.041-0.809,0.016-1.621,0.02-2.434c0-0.043,0.02-0.086,0.043-0.178h1.195c-0.086,2.014,0.27,4.063-0.363,6.06
			c-0.461,1.45-1.533,2.289-2.926,2.744c-1.539,0.503-3.102,0.492-4.635,0.006c-2.021-0.642-3.039-2.124-3.258-4.19
			c-0.076-0.715-0.113-1.438-0.115-2.157c-0.012-4.058-0.006-8.114-0.006-12.173v-0.896h-3.254v-1.658c0.379,0,0.751,0.002,1.122,0
			c2.922-0.018,4.838-1.314,5.867-4.058c0.344-0.919,0.664-1.881,0.766-2.847c0.086-0.824,0.459-0.901,1.086-0.824
			c0.086,0.01,0.174,0.026,0.334,0.051v7.578h5.344V125.483z"/>
	</defs>
	<clipPath id="SVGID_30_">
		<use xlink:href="#SVGID_29_"  overflow="visible"/>
	</clipPath>
	<g clip-path="url(#SVGID_30_)">
		<defs>
			<rect id="SVGID_31_" x="-543.455" y="-166.13" width="885.252" height="497.71"/>
		</defs>
		<clipPath id="SVGID_32_">
			<use xlink:href="#SVGID_31_"  overflow="visible"/>
		</clipPath>
		<rect x="131.931" y="112.771" clip-path="url(#SVGID_32_)" fill="#231F20" width="21.061" height="35.676"/>
	</g>
</g>
<g>
	<defs>
		<path id="SVGID_33_" d="M100.323,125.414c-0.028-0.131-0.059-0.215-0.064-0.301c-0.075-1.143-0.072-1.112,1.072-1.188
			c2.442-0.163,4.884-0.366,7.325-0.538c0.769-0.055,1.143,0.326,1.13,1.109c-0.088,5.205-0.179,10.411-0.267,15.617
			c-0.005,0.247-0.001,0.496,0.008,0.743c0.059,1.807,0.59,2.341,2.404,2.433c0.154,0.008,0.309,0.024,0.504,0.04v1.39h-11.682
			v-1.35c0.44-0.064,0.903-0.105,1.354-0.205c1.058-0.232,1.45-0.682,1.468-1.778c0.035-2.3,0.039-4.6,0.042-6.899
			c0.003-2.165,0.017-4.33-0.029-6.494c-0.041-1.915-0.753-2.569-2.656-2.578C100.733,125.414,100.536,125.414,100.323,125.414"/>
	</defs>
	<clipPath id="SVGID_34_">
		<use xlink:href="#SVGID_33_"  overflow="visible"/>
	</clipPath>
	<g clip-path="url(#SVGID_34_)">
		<defs>
			<rect id="SVGID_35_" x="-543.455" y="-166.13" width="885.252" height="497.71"/>
		</defs>
		<clipPath id="SVGID_36_">
			<use xlink:href="#SVGID_35_"  overflow="visible"/>
		</clipPath>
		<rect x="96.991" y="120.141" clip-path="url(#SVGID_36_)" fill="#231F20" width="18.685" height="27.818"/>
	</g>
</g>
<g>
	<defs>
		<path id="SVGID_37_" d="M106.583,113.469c2.288-0.014,3.731,1.364,3.74,3.568c0.007,2.182-1.47,3.641-3.69,3.649
			c-2.241,0.009-3.771-1.425-3.802-3.563C102.799,114.934,104.289,113.482,106.583,113.469"/>
	</defs>
	<clipPath id="SVGID_38_">
		<use xlink:href="#SVGID_37_"  overflow="visible"/>
	</clipPath>
	<g clip-path="url(#SVGID_38_)">
		<defs>
			<rect id="SVGID_39_" x="-543.455" y="-166.13" width="885.252" height="497.71"/>
		</defs>
		<clipPath id="SVGID_40_">
			<use xlink:href="#SVGID_39_"  overflow="visible"/>
		</clipPath>
		<rect x="99.589" y="110.229" clip-path="url(#SVGID_40_)" fill="#231F20" width="13.973" height="13.698"/>
	</g>
</g>
<g>
	<defs>
		<path id="SVGID_41_" d="M181.645,158.178h0.725v5.498h-0.725V158.178z M181.678,157.408l0.549-1.43h0.877l-0.723,1.43H181.678z
			 M180,158.178h0.768l-2.248,5.498h-0.877l-2.248-5.498h0.768l1.918,4.738L180,158.178z M174.846,158.881h-1.58v3.332
			c0,0.945,0.516,0.868,1.58,0.824v0.639c-1.48,0.219-2.303-0.144-2.303-1.463v-3.332h-1.152v-0.703h1.152v-1.319l0.723-0.22v1.539
			h1.58V158.881z M168.441,163.807c-1.656,0-2.885-1.254-2.885-2.881s1.229-2.881,2.885-2.881c1.086,0,2.006,0.572,2.4,1.441
			l-0.592,0.341c-0.295-0.649-0.986-1.078-1.809-1.078c-1.219,0-2.162,0.957-2.162,2.177c0,1.221,0.943,2.178,2.162,2.178
			c0.832,0,1.502-0.439,1.854-1.078l0.602,0.352C170.447,163.246,169.516,163.807,168.441,163.807z M163.627,163.676v-5.498h0.723
			v5.498H163.627z M163.988,157.012c-0.297,0-0.527-0.242-0.527-0.527c0-0.286,0.23-0.527,0.527-0.527
			c0.295,0,0.527,0.241,0.527,0.527C164.516,156.77,164.283,157.012,163.988,157.012z M160.072,158.045
			c1.34,0,2.15,0.881,2.15,2.255v3.376h-0.725V160.3c0-0.979-0.537-1.551-1.49-1.551c-0.967,0-1.777,0.571-1.777,2.046v2.881h-0.725
			v-5.498h0.725v0.857C158.658,158.342,159.293,158.045,160.072,158.045z M155.861,162.025l0.604,0.352
			c-0.449,0.869-1.383,1.43-2.457,1.43c-1.656,0-2.885-1.254-2.885-2.881s1.229-2.881,2.885-2.881c1.086,0,2.008,0.572,2.402,1.441
			l-0.592,0.341c-0.297-0.649-0.988-1.078-1.811-1.078c-1.217,0-2.16,0.957-2.16,2.177c0,1.221,0.943,2.178,2.16,2.178
			C154.842,163.104,155.51,162.664,155.861,162.025z M153.459,157.408l-1.162-1.43h0.822l0.768,0.956l0.768-0.956h0.822l-1.162,1.43
			H153.459z M147.582,158.749c-1.152,0-1.975,0.759-2.117,1.836h4.09C149.402,159.376,148.525,158.749,147.582,158.749z
			 M147.582,158.045c1.678,0,2.719,1.397,2.719,2.903c0,0.11-0.01,0.231-0.021,0.341h-4.814c0.152,1.122,1.02,1.814,2.182,1.814
			c0.867,0,1.471-0.407,1.766-0.936l0.637,0.375c-0.461,0.747-1.305,1.264-2.412,1.264c-1.734,0-2.918-1.22-2.918-2.881
			C144.719,159.311,145.881,158.045,147.582,158.045z M141.594,158.045c1.205,0,2.051,0.825,2.051,2.199v3.432h-0.725v-3.432
			c0-0.979-0.559-1.495-1.338-1.495c-0.844,0-1.525,0.517-1.525,1.88v3.047h-0.723v-3.432c0-0.979-0.506-1.495-1.283-1.495
			c-0.789,0-1.58,0.517-1.58,1.88v3.047h-0.723v-5.498h0.723v0.803c0.43-0.671,1.02-0.936,1.678-0.936
			c0.77,0,1.361,0.363,1.668,1.001C140.223,158.364,140.891,158.045,141.594,158.045z M131.329,163.104
			c1.217,0,2.159-0.957,2.159-2.178c0-1.22-0.942-2.177-2.159-2.177c-1.218,0-2.161,0.957-2.161,2.177
			C129.167,162.146,130.111,163.104,131.329,163.104z M133.488,158.178h0.724v5.498h-0.724v-1.078
			c-0.46,0.736-1.238,1.209-2.215,1.209c-1.547,0-2.829-1.254-2.829-2.881s1.282-2.881,2.829-2.881c0.977,0,1.755,0.473,2.215,1.21
			V158.178z M132.556,155.979l-1.054,1.43h-0.701l0.878-1.43H132.556z M124.407,162.972h3.159v0.704h-4.168v-0.484l3.05-4.311
			h-2.939v-0.703h3.948v0.483L124.407,162.972z M116.457,163.104c1.217,0,2.16-0.957,2.16-2.178c0-1.22-0.943-2.177-2.16-2.177
			c-1.218,0-2.161,0.957-2.161,2.177C114.295,162.146,115.239,163.104,116.457,163.104z M118.617,158.178h0.725v5.498h-0.725v-1.078
			c-0.46,0.736-1.239,1.209-2.216,1.209c-1.546,0-2.829-1.254-2.829-2.881s1.283-2.881,2.829-2.881c0.977,0,1.756,0.473,2.216,1.21
			V158.178z M108.9,158.178h0.724v5.498H108.9V158.178z M108.933,157.408l0.549-1.43h0.877l-0.725,1.43H108.933z M107.254,158.178
			h0.768l-2.248,5.498h-0.877l-2.249-5.498h0.769l1.919,4.738L107.254,158.178z M102.1,158.881h-1.579v3.332
			c0,0.945,0.516,0.868,1.579,0.824v0.639c-1.48,0.219-2.303-0.144-2.303-1.463v-3.332h-1.152v-0.703h1.152v-1.319l0.724-0.22v1.539
			h1.579V158.881z M94.785,159.618c0,1.363,3.202,0.582,3.202,2.605c0,0.935-0.811,1.583-1.984,1.583
			c-1.097,0-1.843-0.561-2.117-1.264l0.615-0.363c0.197,0.561,0.768,0.924,1.502,0.924c0.646,0,1.262-0.23,1.262-0.88
			c0-1.363-3.203-0.583-3.203-2.605c0-0.88,0.779-1.573,1.876-1.573c0.899,0,1.601,0.44,1.919,1.122l-0.604,0.352
			c-0.23-0.561-0.789-0.77-1.315-0.77C95.367,158.749,94.785,159.023,94.785,159.618z M91.495,159.09c0.384-0.77,1.031-1,1.733-1
			v0.703c-0.878,0-1.733,0.462-1.733,1.826v3.057h-0.724v-5.498h0.724V159.09z M91.572,157.408l-1.162-1.43h0.822L92,156.935
			l0.768-0.956h0.822l-1.162,1.43H91.572z M86.351,163.104c1.218,0,2.161-0.957,2.161-2.178c0-1.22-0.943-2.177-2.161-2.177
			s-2.16,0.957-2.16,2.177C84.191,162.146,85.133,163.104,86.351,163.104z M88.512,158.178h0.724v5.498h-0.724v-1.078
			c-0.461,0.736-1.239,1.209-2.216,1.209c-1.546,0-2.83-1.254-2.83-2.881s1.284-2.881,2.83-2.881c0.977,0,1.755,0.473,2.216,1.21
			V158.178z M87.58,155.979l-1.053,1.43h-0.702l0.878-1.43H87.58z M82.151,158.178h0.768l-2.248,5.498h-0.878l-2.248-5.498h0.769
			l1.918,4.738L82.151,158.178z M74.112,163.104c1.218,0,2.16-0.957,2.16-2.178c0-1.22-0.942-2.177-2.16-2.177
			c-1.217,0-2.16,0.957-2.16,2.177C71.952,162.146,72.895,163.104,74.112,163.104z M74.112,163.807
			c-1.601,0-2.884-1.254-2.884-2.881s1.283-2.881,2.884-2.881c1.602,0,2.885,1.254,2.885,2.881S75.713,163.807,74.112,163.807z
			 M70.57,163.676h-0.966l-2.741-2.65v2.65h-0.725v-7.697h0.725v4.629l2.609-2.43h0.987l-2.829,2.639L70.57,163.676z
			 M59.526,158.749c-1.152,0-1.974,0.759-2.117,1.836H61.5C61.346,159.376,60.468,158.749,59.526,158.749z M59.526,158.045
			c1.678,0,2.72,1.397,2.72,2.903c0,0.11-0.011,0.231-0.021,0.341h-4.815c0.154,1.122,1.021,1.814,2.183,1.814
			c0.866,0,1.47-0.407,1.766-0.936l0.637,0.375c-0.461,0.747-1.306,1.264-2.413,1.264c-1.733,0-2.917-1.22-2.917-2.881
			C56.664,159.311,57.826,158.045,59.526,158.045z M60.667,155.979l-1.054,1.43h-0.701l0.877-1.43H60.667z M56.005,163.676H55.04
			l-2.741-2.65v2.65h-0.724v-7.697h0.724v4.629l2.61-2.43h0.987l-2.83,2.639L56.005,163.676z M48.076,163.807
			c-1.656,0-2.884-1.254-2.884-2.881s1.228-2.881,2.884-2.881c1.086,0,2.007,0.572,2.402,1.441l-0.593,0.341
			c-0.296-0.649-0.986-1.078-1.81-1.078c-1.217,0-2.16,0.957-2.16,2.177c0,1.221,0.943,2.178,2.16,2.178
			c0.834,0,1.503-0.439,1.854-1.078l0.604,0.352C50.083,163.246,49.151,163.807,48.076,163.807z M41.649,158.749
			c-1.151,0-1.974,0.759-2.116,1.836h4.09C43.47,159.376,42.592,158.749,41.649,158.749z M41.649,158.045
			c1.679,0,2.72,1.397,2.72,2.903c0,0.11-0.011,0.231-0.021,0.341h-4.814c0.153,1.122,1.02,1.814,2.182,1.814
			c0.867,0,1.47-0.407,1.767-0.936l0.636,0.375c-0.461,0.747-1.305,1.264-2.413,1.264c-1.732,0-2.917-1.22-2.917-2.881
			C38.787,159.311,39.949,158.045,41.649,158.045z M36.856,163.676v-8.027h0.725v8.027H36.856z M32.985,158.749
			c-1.151,0-1.974,0.759-2.116,1.836h4.09C34.806,159.376,33.928,158.749,32.985,158.749z M32.985,158.045
			c1.678,0,2.72,1.397,2.72,2.903c0,0.11-0.011,0.231-0.021,0.341h-4.814c0.153,1.122,1.02,1.814,2.183,1.814
			c0.866,0,1.469-0.407,1.766-0.936l0.636,0.375c-0.461,0.747-1.305,1.264-2.412,1.264c-1.733,0-2.918-1.22-2.918-2.881
			C30.123,159.311,31.285,158.045,32.985,158.045z M32.492,157.408l-1.163-1.43h0.823l0.768,0.956l0.768-0.956h0.822l-1.162,1.43
			H32.492z M26.997,158.045c1.206,0,2.052,0.825,2.052,2.199v3.432h-0.725v-3.432c0-0.979-0.56-1.495-1.338-1.495
			c-0.844,0-1.524,0.517-1.524,1.88v3.047h-0.724v-3.432c0-0.979-0.505-1.495-1.283-1.495c-0.79,0-1.579,0.517-1.579,1.88v3.047
			h-0.724v-5.498h0.724v0.803c0.428-0.671,1.02-0.936,1.678-0.936c0.768,0,1.36,0.363,1.667,1.001
			C25.625,158.364,26.294,158.045,26.997,158.045z M16.765,163.807c-1.678,0-2.852-1.066-2.852-2.748v-5.08h0.769v5.08
			c0,1.221,0.756,2.001,2.083,2.001c1.327,0,2.083-0.78,2.083-2.001v-5.08h0.769v5.08C19.617,162.74,18.442,163.807,16.765,163.807z
			"/>
	</defs>
	<clipPath id="SVGID_42_">
		<use xlink:href="#SVGID_41_"  overflow="visible"/>
	</clipPath>
	<g clip-path="url(#SVGID_42_)">
		<defs>
			<rect id="SVGID_43_" x="-543.455" y="-166.13" width="885.252" height="497.71"/>
		</defs>
		<clipPath id="SVGID_44_">
			<use xlink:href="#SVGID_43_"  overflow="visible"/>
		</clipPath>
		<rect x="10.672" y="152.408" clip-path="url(#SVGID_44_)" fill="#231F20" width="175.671" height="14.639"/>
	</g>
</g>
<g>
	<defs>
		<polygon id="SVGID_45_" points="97.249,48.81 51.406,2.849 50.954,2.395 51.859,1.487 52.311,1.941 98.154,47.902 144.133,1.806 
			144.584,1.352 145.49,2.26 145.037,2.713 99.059,48.81 145.037,94.906 145.49,95.359 144.584,96.268 144.133,95.813 
			98.154,49.717 52.311,95.678 51.859,96.132 50.954,95.225 51.406,94.771 		"/>
	</defs>
	<clipPath id="SVGID_46_">
		<use xlink:href="#SVGID_45_"  overflow="visible"/>
	</clipPath>
	<g clip-path="url(#SVGID_46_)">
		<defs>
			<rect id="SVGID_47_" x="-543.455" y="-166.13" width="885.252" height="497.71"/>
		</defs>
		<clipPath id="SVGID_48_">
			<use xlink:href="#SVGID_47_"  overflow="visible"/>
		</clipPath>
		<rect x="47.713" y="-1.888" clip-path="url(#SVGID_48_)" fill="#231F20" width="101.017" height="101.396"/>
	</g>
</g>
<g>
	<defs>
		<path id="SVGID_49_" d="M97.314,10.589c-0.379,0.065-0.733,0.108-1.078,0.191c-0.435,0.104-0.69,0.388-0.739,0.844
			c-0.013,0.119-0.044,0.237-0.044,0.356c-0.003,1.417-0.002,2.834-0.002,4.279h5.464c0.005-0.096,0.015-0.201,0.015-0.306
			c0-1.276,0.002-2.551,0-3.827c-0.002-1.019-0.353-1.395-1.367-1.474c-0.16-0.013-0.321-0.022-0.496-0.035V9.936h6.978v0.656
			c-0.378,0.063-0.756,0.101-1.12,0.191c-0.512,0.127-0.743,0.425-0.793,0.949c-0.013,0.129-0.011,0.261-0.011,0.392
			c-0.001,3.293-0.004,6.586,0.002,9.879c0.002,1,0.298,1.31,1.294,1.42c0.205,0.023,0.408,0.051,0.655,0.082
			c0,0.11,0.002,0.226,0,0.342c-0.002,0.106-0.01,0.212-0.015,0.334h-6.982v-0.664c0.314-0.052,0.625-0.087,0.929-0.157
			c0.616-0.141,0.884-0.366,0.897-0.984c0.036-1.719,0.013-3.439,0.013-5.176h-5.466v0.316c0,1.428-0.002,2.857,0.001,4.286
			c0.002,1.236,0.285,1.543,1.523,1.667c0.106,0.011,0.215,0.015,0.342,0.024v0.678h-6.941v-0.655
			c0.347-0.057,0.69-0.093,1.025-0.171c0.569-0.131,0.843-0.45,0.849-1.034c0.02-1.658,0.022-3.314,0.025-4.972
			c0.002-1.745-0.007-3.489-0.002-5.234c0.002-0.972-0.28-1.321-1.427-1.452c-0.149-0.017-0.3-0.021-0.471-0.033V9.939h6.942V10.589
			z"/>
	</defs>
	<clipPath id="SVGID_50_">
		<use xlink:href="#SVGID_49_"  overflow="visible"/>
	</clipPath>
	<g clip-path="url(#SVGID_50_)">
		<defs>
			<rect id="SVGID_51_" x="-543.455" y="-166.13" width="885.252" height="497.71"/>
		</defs>
		<clipPath id="SVGID_52_">
			<use xlink:href="#SVGID_51_"  overflow="visible"/>
		</clipPath>
		<rect x="87.131" y="6.695" clip-path="url(#SVGID_52_)" fill="#231F20" width="22.181" height="20.727"/>
	</g>
</g>
<g>
	<defs>
		<path id="SVGID_53_" d="M60.087,50.156c0.009-0.096,0.017-0.192,0.026-0.289c0.048-0.485,0.188-0.941,0.451-1.353
			c0.229-0.359,0.533-0.644,0.907-0.851c0.329-0.182,0.681-0.29,1.053-0.336c0.436-0.054,0.867-0.037,1.292,0.071
			c0.658,0.167,1.154,0.544,1.454,1.165c0.163,0.334,0.251,0.689,0.285,1.059c0.016,0.173,0.025,0.348,0.037,0.529H61.84
			c0,0.046,0,0.085,0,0.124c0.004,0.336,0.016,0.672,0.075,1.003c0.063,0.348,0.163,0.682,0.381,0.968
			c0.229,0.3,0.539,0.461,0.907,0.508c0.432,0.055,0.849,0.012,1.235-0.206c0.402-0.227,0.637-0.578,0.731-1.026
			c0.01-0.045,0.018-0.091,0.024-0.137c0.007-0.043,0.01-0.087,0.014-0.132h0.414c-0.031,0.158-0.05,0.312-0.091,0.458
			c-0.184,0.648-0.597,1.092-1.212,1.352c-0.266,0.112-0.544,0.172-0.83,0.2c-0.448,0.044-0.894,0.018-1.329-0.098
			c-0.532-0.142-0.995-0.404-1.363-0.824c-0.344-0.391-0.547-0.849-0.642-1.356c-0.03-0.159-0.038-0.323-0.057-0.485
			c-0.003-0.026-0.008-0.051-0.012-0.077V50.156z M63.9,49.72c0.001-0.018,0.004-0.028,0.003-0.039
			c-0.02-0.297-0.03-0.596-0.061-0.892c-0.022-0.226-0.083-0.444-0.181-0.652c-0.26-0.557-0.944-0.555-1.275-0.213
			c-0.159,0.164-0.255,0.362-0.328,0.575c-0.103,0.302-0.149,0.616-0.184,0.932c-0.009,0.096-0.014,0.191-0.021,0.291H63.9z"/>
	</defs>
	<clipPath id="SVGID_54_">
		<use xlink:href="#SVGID_53_"  overflow="visible"/>
	</clipPath>
	<g clip-path="url(#SVGID_54_)">
		<defs>
			<rect id="SVGID_55_" x="-543.455" y="-166.13" width="885.252" height="497.71"/>
		</defs>
		<clipPath id="SVGID_56_">
			<use xlink:href="#SVGID_55_"  overflow="visible"/>
		</clipPath>
		<rect x="56.847" y="44.057" clip-path="url(#SVGID_56_)" fill="#231F20" width="12.016" height="12.465"/>
	</g>
</g>
<g>
	<defs>
		<path id="SVGID_57_" d="M79.135,52.372c-0.01,0.051-0.019,0.103-0.029,0.154c-0.098,0.416-0.393,0.695-0.816,0.76
			c-0.281,0.044-0.558,0.023-0.813-0.117c-0.293-0.16-0.449-0.414-0.497-0.738c-0.031-0.211-0.01-0.419,0.073-0.617
			c0.103-0.244,0.28-0.417,0.525-0.51c0.356-0.135,0.712-0.128,1.055,0.047c0.293,0.15,0.441,0.405,0.489,0.726
			c0.003,0.019,0.009,0.038,0.014,0.057V52.372z"/>
	</defs>
	<clipPath id="SVGID_58_">
		<use xlink:href="#SVGID_57_"  overflow="visible"/>
	</clipPath>
	<g clip-path="url(#SVGID_58_)">
		<defs>
			<rect id="SVGID_59_" x="-543.455" y="-166.13" width="885.252" height="497.71"/>
		</defs>
		<clipPath id="SVGID_60_">
			<use xlink:href="#SVGID_59_"  overflow="visible"/>
		</clipPath>
		<rect x="73.725" y="47.97" clip-path="url(#SVGID_60_)" fill="#231F20" width="8.65" height="8.577"/>
	</g>
</g>
<g>
	<defs>
		<path id="SVGID_61_" d="M70.745,47.301h0.317c0.016,0.67,0.03,1.34,0.047,2.014h-0.391c-0.029-0.158-0.047-0.316-0.089-0.468
			c-0.144-0.517-0.476-0.862-0.981-1.031c-0.471-0.156-0.947-0.163-1.42-0.009c-0.195,0.063-0.365,0.168-0.475,0.35
			c-0.173,0.287-0.101,0.661,0.165,0.867c0.189,0.147,0.41,0.23,0.637,0.295c0.339,0.098,0.682,0.184,1.022,0.28
			c0.379,0.107,0.751,0.234,1.085,0.451c0.39,0.252,0.63,0.601,0.689,1.068c0.054,0.422,0.007,0.829-0.222,1.198
			c-0.22,0.355-0.54,0.594-0.925,0.746c-0.494,0.196-1.008,0.252-1.535,0.204c-0.442-0.041-0.854-0.18-1.246-0.38
			c-0.055-0.028-0.111-0.054-0.168-0.076c-0.12-0.046-0.197-0.016-0.237,0.107c-0.03,0.096-0.04,0.198-0.059,0.297
			c-0.004,0.021-0.004,0.043-0.006,0.068h-0.319c0.016-0.75,0.031-1.496,0.046-2.246h0.4c0.012,0.105,0.02,0.21,0.035,0.314
			c0.058,0.393,0.205,0.742,0.491,1.023c0.231,0.229,0.513,0.37,0.826,0.445c0.458,0.11,0.912,0.109,1.354-0.076
			c0.219-0.092,0.4-0.229,0.494-0.459c0.123-0.302,0.034-0.619-0.227-0.813c-0.239-0.179-0.515-0.277-0.796-0.357
			c-0.384-0.111-0.771-0.207-1.153-0.323c-0.284-0.086-0.552-0.214-0.796-0.39c-0.394-0.285-0.605-0.667-0.625-1.153
			c-0.018-0.416,0.075-0.802,0.327-1.14c0.178-0.238,0.411-0.41,0.677-0.539c0.486-0.236,1.001-0.302,1.535-0.255
			c0.396,0.034,0.765,0.153,1.113,0.342c0.059,0.031,0.117,0.061,0.178,0.085c0.102,0.041,0.163,0.011,0.188-0.096
			c0.018-0.083,0.022-0.17,0.032-0.255C70.739,47.361,70.741,47.333,70.745,47.301"/>
	</defs>
	<clipPath id="SVGID_62_">
		<use xlink:href="#SVGID_61_"  overflow="visible"/>
	</clipPath>
	<g clip-path="url(#SVGID_62_)">
		<defs>
			<rect id="SVGID_63_" x="-543.455" y="-166.13" width="885.252" height="497.71"/>
		</defs>
		<clipPath id="SVGID_64_">
			<use xlink:href="#SVGID_63_"  overflow="visible"/>
		</clipPath>
		<rect x="63.395" y="44.059" clip-path="url(#SVGID_64_)" fill="#231F20" width="11.218" height="12.463"/>
	</g>
</g>
<g>
	<defs>
		<path id="SVGID_65_" d="M72.017,47.409c0.153,0,0.301,0.002,0.448-0.001c0.576-0.013,1.016-0.264,1.313-0.761
			c0.193-0.324,0.295-0.68,0.365-1.048c0.017-0.084,0.025-0.17,0.043-0.253c0.004-0.019,0.029-0.045,0.046-0.045
			c0.104-0.004,0.207-0.002,0.317-0.002v2.114c0.49-0.015,0.972-0.03,1.458-0.045v0.542c-0.481-0.015-0.962-0.03-1.452-0.046
			c-0.001,0.022-0.003,0.043-0.003,0.064c0,1.305,0,2.61,0.003,3.915c0,0.165,0.01,0.332,0.075,0.487
			c0.086,0.202,0.259,0.302,0.506,0.295c0.209-0.006,0.371-0.127,0.442-0.327c0.062-0.172,0.081-0.353,0.085-0.533
			c0.007-0.305,0.003-0.611,0.004-0.916c0-0.024,0-0.048,0-0.078h0.341c0.002,0.02,0.004,0.038,0.004,0.058
			c0,0.352,0.003,0.704-0.004,1.055c-0.005,0.257-0.047,0.51-0.172,0.74c-0.148,0.274-0.386,0.442-0.672,0.545
			c-0.341,0.124-0.691,0.138-1.047,0.083c-0.228-0.035-0.438-0.109-0.63-0.237c-0.309-0.206-0.466-0.506-0.519-0.863
			c-0.029-0.202-0.041-0.409-0.041-0.613c-0.004-1.196-0.002-2.393-0.002-3.59v-0.086h-0.91V47.409z"/>
	</defs>
	<clipPath id="SVGID_66_">
		<use xlink:href="#SVGID_65_"  overflow="visible"/>
	</clipPath>
	<g clip-path="url(#SVGID_66_)">
		<defs>
			<rect id="SVGID_67_" x="-543.455" y="-166.13" width="885.252" height="497.71"/>
		</defs>
		<clipPath id="SVGID_68_">
			<use xlink:href="#SVGID_67_"  overflow="visible"/>
		</clipPath>
		<rect x="68.777" y="42.057" clip-path="url(#SVGID_68_)" fill="#231F20" width="10.478" height="14.465"/>
	</g>
</g>
<g>
	<defs>
		<path id="SVGID_69_" d="M124.209,54.662c-0.115-0.015-0.23-0.028-0.346-0.047c-0.46-0.082-0.885-0.24-1.217-0.589
			c-0.336-0.352-0.441-0.939-0.219-1.376c0.175-0.345,0.469-0.483,0.842-0.477c0.299,0.004,0.549,0.111,0.707,0.376
			c0.048,0.078,0.073,0.171,0.101,0.259c0.006,0.02-0.016,0.057-0.036,0.074c-0.152,0.135-0.303,0.272-0.4,0.455
			c-0.098,0.185-0.13,0.378-0.043,0.577c0.085,0.196,0.255,0.292,0.449,0.338c0.435,0.103,0.849,0.051,1.213-0.222
			c0.202-0.152,0.343-0.361,0.447-0.592c0.171-0.383,0.251-0.789,0.302-1.203c0.068-0.563,0.063-1.128,0.058-1.716
			c-0.037,0.083-0.063,0.148-0.093,0.211c-0.27,0.577-0.736,0.881-1.352,0.975c-0.392,0.06-0.776,0.025-1.147-0.119
			c-0.436-0.169-0.755-0.469-0.967-0.883c-0.258-0.506-0.321-1.044-0.235-1.601c0.141-0.917,0.669-1.521,1.516-1.857
			c0.497-0.198,1.016-0.258,1.545-0.201s0.998,0.268,1.396,0.625c0.382,0.342,0.645,0.764,0.819,1.244
			c0.129,0.354,0.202,0.718,0.236,1.093c0.055,0.601,0.015,1.195-0.126,1.782c-0.147,0.614-0.402,1.18-0.8,1.672
			c-0.479,0.595-1.083,0.993-1.84,1.14c-0.134,0.026-0.27,0.042-0.404,0.062H124.209z M125.911,49.299
			c0-0.161,0.009-0.323-0.002-0.484c-0.021-0.314-0.064-0.625-0.186-0.92c-0.156-0.385-0.478-0.566-0.881-0.494
			c-0.261,0.047-0.426,0.216-0.539,0.442c-0.188,0.376-0.237,0.785-0.247,1.196c-0.007,0.337,0.009,0.676,0.031,1.014
			c0.016,0.252,0.079,0.497,0.187,0.728c0.221,0.477,0.658,0.542,1.036,0.287c0.178-0.12,0.293-0.293,0.38-0.484
			C125.876,50.176,125.934,49.743,125.911,49.299z"/>
	</defs>
	<clipPath id="SVGID_70_">
		<use xlink:href="#SVGID_69_"  overflow="visible"/>
	</clipPath>
	<g clip-path="url(#SVGID_70_)">
		<defs>
			<rect id="SVGID_71_" x="-543.455" y="-166.13" width="885.252" height="497.71"/>
		</defs>
		<clipPath id="SVGID_72_">
			<use xlink:href="#SVGID_71_"  overflow="visible"/>
		</clipPath>
		<rect x="118.997" y="43.784" clip-path="url(#SVGID_72_)" fill="#231F20" width="12.053" height="14.119"/>
	</g>
</g>
<g>
	<defs>
		<path id="SVGID_73_" d="M130.701,54.662c-0.114-0.015-0.23-0.028-0.344-0.047c-0.461-0.082-0.885-0.24-1.219-0.589
			c-0.335-0.352-0.44-0.94-0.219-1.376c0.176-0.345,0.471-0.483,0.843-0.477c0.299,0.004,0.549,0.111,0.708,0.376
			c0.047,0.078,0.072,0.171,0.099,0.259c0.007,0.02-0.016,0.057-0.035,0.074c-0.153,0.135-0.303,0.272-0.4,0.455
			c-0.098,0.185-0.13,0.378-0.044,0.577c0.086,0.196,0.256,0.292,0.45,0.338c0.435,0.104,0.849,0.051,1.213-0.222
			c0.203-0.152,0.342-0.361,0.446-0.592c0.172-0.383,0.251-0.789,0.302-1.203c0.069-0.563,0.063-1.128,0.058-1.716
			c-0.035,0.083-0.062,0.148-0.092,0.211c-0.27,0.577-0.736,0.881-1.352,0.975c-0.393,0.06-0.776,0.025-1.147-0.119
			c-0.436-0.169-0.755-0.469-0.967-0.883c-0.258-0.506-0.321-1.044-0.236-1.601c0.142-0.917,0.671-1.521,1.518-1.857
			c0.496-0.198,1.015-0.258,1.543-0.201c0.53,0.058,0.998,0.268,1.397,0.625c0.382,0.342,0.644,0.764,0.818,1.244
			c0.129,0.354,0.203,0.718,0.237,1.093c0.055,0.601,0.014,1.195-0.127,1.782c-0.146,0.614-0.402,1.18-0.798,1.673
			c-0.479,0.594-1.084,0.993-1.841,1.14c-0.135,0.026-0.271,0.042-0.405,0.062H130.701z M130.532,49.352
			c0.011,0.197,0.019,0.395,0.03,0.593c0.006,0.083,0.019,0.166,0.032,0.247c0.044,0.244,0.102,0.483,0.231,0.698
			c0.162,0.268,0.416,0.375,0.718,0.299c0.267-0.068,0.443-0.25,0.573-0.48c0.211-0.374,0.294-0.783,0.298-1.205
			c0.004-0.33-0.018-0.662-0.047-0.99c-0.023-0.259-0.09-0.51-0.214-0.743c-0.265-0.496-0.967-0.496-1.251-0.098
			c-0.135,0.188-0.212,0.397-0.263,0.618C130.559,48.639,130.541,48.995,130.532,49.352z"/>
	</defs>
	<clipPath id="SVGID_74_">
		<use xlink:href="#SVGID_73_"  overflow="visible"/>
	</clipPath>
	<g clip-path="url(#SVGID_74_)">
		<defs>
			<rect id="SVGID_75_" x="-543.455" y="-166.13" width="885.252" height="497.71"/>
		</defs>
		<clipPath id="SVGID_76_">
			<use xlink:href="#SVGID_75_"  overflow="visible"/>
		</clipPath>
		<rect x="125.488" y="43.784" clip-path="url(#SVGID_76_)" fill="#231F20" width="12.053" height="14.119"/>
	</g>
</g>
<g>
	<defs>
		<path id="SVGID_77_" d="M139.611,52.848h-4.418v-0.354c0.178-0.018,0.354-0.031,0.528-0.054c0.17-0.021,0.337-0.059,0.49-0.143
			c0.158-0.086,0.24-0.224,0.264-0.399c0.01-0.083,0.016-0.166,0.016-0.249c0.002-1.194,0.002-2.388,0.002-3.582v-0.068
			c-0.434,0.042-0.86,0.084-1.292,0.127c-0.007-0.104-0.015-0.196-0.021-0.285c0.269-0.047,0.529-0.085,0.786-0.141
			c0.672-0.145,1.331-0.332,1.952-0.636c0.016-0.008,0.033-0.018,0.051-0.018c0.111-0.002,0.223-0.001,0.342-0.001v0.115
			c0,1.467,0,2.935,0,4.402c0,0.104,0.002,0.209,0.014,0.313c0.025,0.262,0.176,0.425,0.422,0.487
			c0.203,0.051,0.412,0.078,0.619,0.11c0.082,0.013,0.166,0.011,0.248,0.017V52.848z"/>
	</defs>
	<clipPath id="SVGID_78_">
		<use xlink:href="#SVGID_77_"  overflow="visible"/>
	</clipPath>
	<g clip-path="url(#SVGID_78_)">
		<defs>
			<rect id="SVGID_79_" x="-543.455" y="-166.13" width="885.252" height="497.71"/>
		</defs>
		<clipPath id="SVGID_80_">
			<use xlink:href="#SVGID_79_"  overflow="visible"/>
		</clipPath>
		<rect x="131.938" y="43.804" clip-path="url(#SVGID_80_)" fill="#231F20" width="10.916" height="12.284"/>
	</g>
</g>
<g>
	<defs>
		<path id="SVGID_81_" d="M120.331,47.044v0.115c0,1.468,0,2.935,0,4.403c0,0.104,0.003,0.209,0.013,0.313
			c0.025,0.262,0.178,0.426,0.424,0.487c0.208,0.051,0.423,0.077,0.635,0.11c0.074,0.011,0.148,0.012,0.229,0.018v0.352h-4.415
			v-0.347c0.178-0.018,0.353-0.031,0.527-0.054c0.171-0.021,0.337-0.059,0.489-0.143c0.159-0.086,0.242-0.224,0.264-0.399
			c0.011-0.083,0.017-0.166,0.017-0.249c0.001-1.194,0-2.388,0.001-3.582v-0.069c-0.433,0.042-0.858,0.084-1.291,0.127
			c-0.008-0.104-0.015-0.196-0.022-0.285c0.269-0.047,0.53-0.085,0.788-0.141c0.671-0.145,1.33-0.332,1.95-0.636
			c0.016-0.008,0.033-0.018,0.051-0.018C120.099,47.043,120.21,47.044,120.331,47.044"/>
	</defs>
	<clipPath id="SVGID_82_">
		<use xlink:href="#SVGID_81_"  overflow="visible"/>
	</clipPath>
	<g clip-path="url(#SVGID_82_)">
		<defs>
			<rect id="SVGID_83_" x="-543.455" y="-166.13" width="885.252" height="497.71"/>
		</defs>
		<clipPath id="SVGID_84_">
			<use xlink:href="#SVGID_83_"  overflow="visible"/>
		</clipPath>
		<rect x="113.959" y="43.804" clip-path="url(#SVGID_84_)" fill="#231F20" width="10.91" height="12.277"/>
	</g>
</g>
<g>
	<defs>
		<path id="SVGID_85_" d="M102.695,89.559c-1.289,0-2.578-0.008-3.867,0.006c-0.284,0.003-0.371-0.089-0.346-0.361
			c0.06-0.609-0.161-1.099-0.68-1.432c-0.527-0.338-1.094-0.352-1.648-0.094c-0.564,0.262-0.844,0.737-0.868,1.359
			c-0.021,0.522-0.019,0.522-0.528,0.522c-2.491,0-4.982,0-7.475,0c-0.374,0-0.374,0-0.374-0.383c0-0.791-0.001-1.582,0-2.373
			c0-0.382,0-0.383,0.37-0.396c0.89-0.03,1.698-0.253,2.239-1.03c0.48-0.69,0.588-1.443,0.227-2.215
			c-0.367-0.785-0.987-1.261-1.863-1.366c-0.237-0.028-0.479-0.052-0.718-0.057c-0.184-0.004-0.27-0.074-0.255-0.259
			c0.001-0.01,0-0.02,0-0.029c-0.023-0.686-0.023-0.686-0.72-0.686c-0.741,0-1.481-0.006-2.223,0.003
			c-0.216,0.003-0.308-0.051-0.307-0.288c0.008-1.919,0.006-3.838,0.001-5.758c0-0.234,0.077-0.321,0.319-0.318
			c0.856,0.012,1.713-0.004,2.568,0.01c0.271,0.005,0.374-0.067,0.366-0.354c-0.017-0.599-0.002-0.599,0.589-0.599
			c6.311,0,12.621,0,18.932,0c0.459,0,0.458,0,0.46,0.447c0.003,0.554-0.057,0.5,0.49,0.501c1.664,0.001,3.328,0,4.992,0
			c0.396,0,0.404,0.009,0.406,0.405c0.011,2.605-1.609,4.829-4.117,5.611c-0.5,0.156-1.027,0.229-1.545,0.324
			c-0.143,0.026-0.223,0.051-0.231,0.22c-0.013,0.248,0.026,0.594-0.115,0.716c-0.159,0.139-0.492,0.079-0.75,0.101
			c-0.962,0.079-1.642,0.572-2.01,1.453c-0.49,1.168,0.112,2.532,1.309,2.95c0.391,0.137,0.822,0.18,1.24,0.209
			c0.268,0.019,0.341,0.101,0.336,0.361c-0.015,0.819-0.015,1.64,0,2.459c0.005,0.263-0.069,0.35-0.338,0.347
			C105.274,89.552,103.984,89.559,102.695,89.559 M96.865,80.638c2.818,0,5.637,0,8.454,0c0.385,0,0.387-0.002,0.388-0.386
			c0.001-1.765,0.001-3.529,0-5.294c0-0.396-0.015-0.411-0.403-0.411c-5.616,0-11.234,0.001-16.851-0.006
			c-0.291,0-0.377,0.081-0.375,0.375c0.013,1.784,0.006,3.568,0.007,5.352c0,0.371,0,0.371,0.385,0.371
			C91.267,80.638,94.067,80.638,96.865,80.638 M103.539,81.812H90.247c1.164,1.524,1.14,3.011,0.006,4.517h13.286
			C102.395,84.808,102.387,83.332,103.539,81.812 M109.249,75.536c-0.692,0-1.385,0.003-2.077-0.002
			c-0.169-0.001-0.269,0.028-0.267,0.235c0.007,1.214,0.007,2.429,0.002,3.644c0,0.194,0.068,0.25,0.26,0.23
			c1.177-0.126,2.2-0.585,3.051-1.414c0.678-0.662,1.126-1.453,1.313-2.389c0.045-0.229-0.024-0.312-0.262-0.308
			C110.595,75.543,109.922,75.536,109.249,75.536 M84.824,77.586c0,0.598,0.006,1.195-0.002,1.793
			c-0.003,0.22,0.072,0.312,0.301,0.306c0.48-0.012,0.962-0.01,1.442,0c0.221,0.004,0.31-0.076,0.309-0.302
			c-0.006-1.185-0.007-2.371,0.001-3.556c0.002-0.233-0.089-0.299-0.308-0.294c-0.48,0.011-0.961,0.015-1.441-0.001
			c-0.249-0.009-0.311,0.091-0.305,0.321C84.833,76.43,84.824,77.008,84.824,77.586 M99.221,87.519
			c0.117,0.266,0.228,0.469,0.296,0.685c0.06,0.188,0.156,0.256,0.353,0.256c1.853-0.006,3.706-0.007,5.559,0.001
			c0.248,0.001,0.331-0.098,0.31-0.327c-0.007-0.066-0.002-0.135-0.002-0.202c0-0.429,0-0.431-0.438-0.431
			c-1.893,0-3.785,0-5.679,0.001C99.506,87.502,99.395,87.511,99.221,87.519 M94.565,87.519c-0.162-0.008-0.274-0.017-0.387-0.017
			c-1.817-0.001-3.637-0.005-5.455,0.001c-0.735,0.002-0.638-0.126-0.653,0.664c-0.004,0.21,0.07,0.296,0.281,0.296
			c1.865-0.003,3.73,0,5.596-0.006c0.084,0,0.214-0.037,0.245-0.096C94.324,88.107,94.426,87.84,94.565,87.519"/>
	</defs>
	<clipPath id="SVGID_86_">
		<use xlink:href="#SVGID_85_"  overflow="visible"/>
	</clipPath>
	<g clip-path="url(#SVGID_86_)">
		<defs>
			<rect id="SVGID_87_" x="-543.455" y="-166.13" width="885.252" height="497.71"/>
		</defs>
		<clipPath id="SVGID_88_">
			<use xlink:href="#SVGID_87_"  overflow="visible"/>
		</clipPath>
		<rect x="80.419" y="70.22" clip-path="url(#SVGID_88_)" fill="#231F20" width="35.604" height="22.585"/>
	</g>
</g>
</svg>
