<?xml version="1.0" encoding="iso-8859-1"?>
<!-- Generator: Adobe Illustrator 15.1.0, SVG Export Plug-In . SVG Version: 6.00 Build 0)  -->
<!DOCTYPE svg PUBLIC "-//W3C//DTD SVG 1.1//EN" "http://www.w3.org/Graphics/SVG/1.1/DTD/svg11.dtd">
<svg version="1.1" id="Vrstva_1" xmlns="http://www.w3.org/2000/svg" xmlns:xlink="http://www.w3.org/1999/xlink" x="0px" y="0px"
	 width="327.969px" height="132.779px" viewBox="0 0 327.969 132.779" style="enable-background:new 0 0 327.969 132.779;"
	 xml:space="preserve">
<linearGradient id="SVGID_1_" gradientUnits="userSpaceOnUse" x1="0.5" y1="108.0684" x2="21.8096" y2="108.0684">
	<stop  offset="0" style="stop-color:#F29400"/>
	<stop  offset="1" style="stop-color:#F8B334"/>
</linearGradient>
<path style="fill:url(#SVGID_1_);stroke:#FFFFFF;stroke-miterlimit:10;" d="M21.81,131.26H0.5v-3.704l12.981-36.425H1.537v-6.254
	H21.75v4.002L8.799,125.007H21.81V131.26z"/>
<linearGradient id="SVGID_2_" gradientUnits="userSpaceOnUse" x1="18.1543" y1="108.0684" x2="41.2725" y2="108.0684">
	<stop  offset="0" style="stop-color:#F29400"/>
	<stop  offset="1" style="stop-color:#F8B334"/>
</linearGradient>
<path style="fill:url(#SVGID_2_);stroke:#FFFFFF;stroke-miterlimit:10;" d="M41.272,122.518c0,2.727-0.811,4.865-2.431,6.416
	s-3.804,2.326-6.55,2.326H18.154V84.877h14.138c2.746,0,4.93,0.786,6.55,2.356c1.62,1.571,2.431,3.72,2.431,6.446V122.518z
	 M34.307,121.361V94.717c0-2.588-1.354-3.882-4.06-3.882H25.09v34.468h4.979C32.895,125.303,34.307,123.99,34.307,121.361z"/>
<linearGradient id="SVGID_3_" gradientUnits="userSpaceOnUse" x1="39.4014" y1="108.0684" x2="63.1396" y2="108.0684">
	<stop  offset="0" style="stop-color:#F29400"/>
	<stop  offset="1" style="stop-color:#F8B334"/>
</linearGradient>
<path style="fill:url(#SVGID_3_);stroke:#FFFFFF;stroke-miterlimit:10;" d="M63.14,131.26h-7.23l-7.646-21.545v-4.18h6.816v-14.7
	h-8.744v40.425h-6.934V84.877h18.402c2.789,0,4.18,1.424,4.18,4.27v16.863c0,1.955-0.66,3.221-1.984,3.793
	c-0.711,0.297-2.213,0.445-4.506,0.445L63.14,131.26z"/>
<linearGradient id="SVGID_4_" gradientUnits="userSpaceOnUse" x1="57.2471" y1="108.0391" x2="82.4385" y2="108.0391">
	<stop  offset="0" style="stop-color:#F29400"/>
	<stop  offset="1" style="stop-color:#F8B334"/>
</linearGradient>
<path style="fill:url(#SVGID_4_);stroke:#FFFFFF;stroke-miterlimit:10;" d="M82.438,131.26h-6.877l-1.393-8.802h-8.684l-1.393,8.802
	h-6.846v-0.117l8.98-46.324h7.289L82.438,131.26z M73.19,116.502l-3.379-20.925l-3.408,20.925H73.19z"/>
<linearGradient id="SVGID_5_" gradientUnits="userSpaceOnUse" x1="73.5537" y1="108.0986" x2="98.2139" y2="108.0986">
	<stop  offset="0" style="stop-color:#F29400"/>
	<stop  offset="1" style="stop-color:#F8B334"/>
</linearGradient>
<path style="fill:url(#SVGID_5_);stroke:#FFFFFF;stroke-miterlimit:10;" d="M98.214,84.877l-8.893,46.443h-6.906l-8.861-46.443
	h6.965l5.188,31.801c0.039,0.91,0.098,2.234,0.178,3.973c-0.021-0.909,0.039-2.232,0.178-3.973l5.215-31.801H98.214z"/>
<linearGradient id="SVGID_6_" gradientUnits="userSpaceOnUse" x1="92.9209" y1="103.0156" x2="112.1572" y2="103.0156">
	<stop  offset="0" style="stop-color:#F29400"/>
	<stop  offset="1" style="stop-color:#F8B334"/>
</linearGradient>
<path style="fill:url(#SVGID_6_);stroke:#FFFFFF;stroke-miterlimit:10;" d="M112.157,131.26H92.921V84.877h19.057v6.136H99.858
	v13.544h10.432v6.017H99.858v14.552h12.299V131.26z M110.704,75.038l-8.625,7.825h-4.979v-0.238l5.098-7.854h8.506V75.038z"/>
<linearGradient id="SVGID_7_" gradientUnits="userSpaceOnUse" x1="118.1328" y1="95.2256" x2="149.4336" y2="95.2256">
	<stop  offset="0" style="stop-color:#7C4D25"/>
	<stop  offset="1" style="stop-color:#673B15"/>
</linearGradient>
<path style="fill:url(#SVGID_7_);stroke:#FFFFFF;stroke-miterlimit:10;" d="M149.434,127.023c0,1.547-0.498,2.811-1.492,3.788
	c-0.994,0.979-2.266,1.468-3.813,1.468h-20.742c-1.545,0-2.807-0.488-3.787-1.468c-0.979-0.978-1.467-2.241-1.467-3.788V63.428
	c0-1.546,0.488-2.81,1.467-3.788c0.98-0.978,2.242-1.468,3.787-1.468h20.742c1.547,0,2.818,0.49,3.813,1.468
	c0.994,0.979,1.492,2.242,1.492,3.788V127.023z M142.85,126.455V63.996h-18.135v62.459H142.85z"/>
<linearGradient id="SVGID_8_" gradientUnits="userSpaceOnUse" x1="179.4258" y1="95.2256" x2="203.7637" y2="95.2256">
	<stop  offset="0" style="stop-color:#7C4D25"/>
	<stop  offset="1" style="stop-color:#673B15"/>
</linearGradient>
<path style="fill:url(#SVGID_8_);stroke:#FFFFFF;stroke-miterlimit:10;" d="M203.764,132.279h-24.338V58.172h24.055v5.824h-17.475
	V91.65h15.912v5.92h-15.912v28.885h17.758V132.279z"/>
<linearGradient id="SVGID_9_" gradientUnits="userSpaceOnUse" x1="202.959" y1="95.2256" x2="232.6514" y2="95.2256">
	<stop  offset="0" style="stop-color:#7C4D25"/>
	<stop  offset="1" style="stop-color:#673B15"/>
</linearGradient>
<path style="fill:url(#SVGID_9_);stroke:#FFFFFF;stroke-miterlimit:10;" d="M232.651,127.023c0,1.547-0.508,2.811-1.518,3.788
	c-1.01,0.979-2.287,1.468-3.834,1.468h-19.085c-1.547,0-2.811-0.488-3.787-1.468c-0.98-0.978-1.469-2.241-1.469-3.788V63.428
	c0-1.546,0.488-2.81,1.469-3.788c0.977-0.978,2.24-1.468,3.787-1.468H227.3c1.547,0,2.824,0.49,3.834,1.468
	c1.01,0.979,1.518,2.242,1.518,3.788v17.236h-6.629V63.996h-16.481v62.459h16.481v-18.23h6.629V127.023z"/>
<linearGradient id="SVGID_10_" gradientUnits="userSpaceOnUse" x1="232.1318" y1="95.2256" x2="263.1494" y2="95.2256">
	<stop  offset="0" style="stop-color:#7C4D25"/>
	<stop  offset="1" style="stop-color:#673B15"/>
</linearGradient>
<path style="fill:url(#SVGID_10_);stroke:#FFFFFF;stroke-miterlimit:10;" d="M263.149,132.279h-6.582V96.67h-17.854v35.609h-6.582
	V58.172h6.582v32.579h17.854V58.172h6.582V132.279z"/>
<linearGradient id="SVGID_11_" gradientUnits="userSpaceOnUse" x1="257.7607" y1="95.2256" x2="291.333" y2="95.2256">
	<stop  offset="0" style="stop-color:#7C4D25"/>
	<stop  offset="1" style="stop-color:#673B15"/>
</linearGradient>
<path style="fill:url(#SVGID_11_);stroke:#FFFFFF;stroke-miterlimit:10;" d="M291.333,58.598l-8.996,29.975
	c-1.137,3-2.637,8.004-4.5,15.012v28.695h-6.582v-28.695c-0.441-2.398-1.121-4.926-2.035-7.576
	c-1.516-4.547-2.338-7.023-2.463-7.436l-8.996-29.975c0-0.031,0-0.172,0-0.426h6.674l10.182,37.078l10.088-37.078h6.629
	C291.333,58.393,291.333,58.535,291.333,58.598z"/>
<g>
	<linearGradient id="SVGID_12_" gradientUnits="userSpaceOnUse" x1="149.4336" y1="95.2256" x2="180.9688" y2="95.2256">
		<stop  offset="0" style="stop-color:#7C4D25"/>
		<stop  offset="1" style="stop-color:#673B15"/>
	</linearGradient>
	<path style="fill:url(#SVGID_12_);stroke:#FFFFFF;stroke-miterlimit:10;" d="M180.969,132.279h-6.912l-13.781-39.682l0.898-1.325
		h11.746V63.996h-16.904v68.283h-6.582V58.172h24.813c1.545,0,2.809,0.49,3.785,1.468c0.98,0.979,1.469,2.242,1.469,3.788v28.129
		c0,3.566-2.398,5.351-7.195,5.351c-0.475,0-1.168-0.024-2.086-0.071c-0.916-0.047-1.578-0.072-1.986-0.072
		C172.492,108.572,176.738,120.41,180.969,132.279z"/>
	<linearGradient id="SVGID_13_" gradientUnits="userSpaceOnUse" x1="151.166" y1="51.1514" x2="174.5547" y2="51.1514">
		<stop  offset="0" style="stop-color:#7C4D25"/>
		<stop  offset="1" style="stop-color:#673B15"/>
	</linearGradient>
	<path style="fill:url(#SVGID_13_);stroke:#FFFFFF;stroke-miterlimit:10;" d="M174.555,45.752l-9.781,11.09h-3.777l-9.83-11.09
		v-0.291h4.164l7.65,5.715l7.604-5.715h3.971V45.752z"/>
</g>
<g>
	
		<linearGradient id="SVGID_14_" gradientUnits="userSpaceOnUse" x1="85.7344" y1="59.3877" x2="142.8744" y2="59.3877" gradientTransform="matrix(0.6497 -0.4155 0.5219 0.8425 -24.5287 38.67)">
		<stop  offset="0" style="stop-color:#97BF0D"/>
		<stop  offset="1" style="stop-color:#00632E"/>
	</linearGradient>
	<path style="opacity:0.83;fill:url(#SVGID_14_);" d="M85.815,29.126c-10.148-7.364-17.654-11.055-17.654-11.055
		s-1.344,26.849,9.792,56.092c3.595-3.098,7.413-5.943,11.428-8.507C86.301,52.084,85.61,39.273,85.815,29.126z"/>
	
		<linearGradient id="SVGID_15_" gradientUnits="userSpaceOnUse" x1="102.2051" y1="45.7568" x2="159.3447" y2="45.7568" gradientTransform="matrix(0.7051 -0.3124 0.3883 0.9118 -15.7206 25.2082)">
		<stop  offset="0" style="stop-color:#97BF0D"/>
		<stop  offset="1" style="stop-color:#00632E"/>
	</linearGradient>
	<path style="opacity:0.83;fill:url(#SVGID_15_);" d="M105.521,22.723C95.706,12.7,87.863,7.233,87.863,7.233
		s-1.78,8.694-2.048,21.893c5.323,3.863,11.367,8.738,17.449,14.633C103.565,36.008,104.443,28.88,105.521,22.723z"/>
	
		<linearGradient id="SVGID_16_" gradientUnits="userSpaceOnUse" x1="85.7344" y1="69.0283" x2="142.8736" y2="69.0283" gradientTransform="matrix(0.6497 -0.4155 0.5219 0.8425 -24.5287 38.67)">
		<stop  offset="0" style="stop-color:#97BF0D"/>
		<stop  offset="1" style="stop-color:#00632E"/>
	</linearGradient>
	<path style="opacity:0.83;fill:url(#SVGID_16_);" d="M89.381,65.656c4.453-2.844,9.15-5.337,14.049-7.451
		c-0.317-4.987-0.345-9.824-0.166-14.446c-6.083-5.895-12.126-10.77-17.449-14.633C85.61,39.273,86.301,52.084,89.381,65.656z"/>
	
		<linearGradient id="SVGID_17_" gradientUnits="userSpaceOnUse" x1="102.2065" y1="62.7021" x2="159.3441" y2="62.7021" gradientTransform="matrix(0.7051 -0.3124 0.3883 0.9118 -15.7206 25.2082)">
		<stop  offset="0" style="stop-color:#97BF0D"/>
		<stop  offset="1" style="stop-color:#00632E"/>
	</linearGradient>
	<path style="opacity:0.83;fill:url(#SVGID_17_);" d="M89.381,65.656c4.453-2.844,9.15-5.337,14.049-7.451
		c-0.317-4.987-0.345-9.824-0.166-14.446c-6.083-5.895-12.126-10.77-17.449-14.633C85.61,39.273,86.301,52.084,89.381,65.656z"/>
	
		<linearGradient id="SVGID_18_" gradientUnits="userSpaceOnUse" x1="118.3237" y1="46.8013" x2="175.4635" y2="46.8013" gradientTransform="matrix(0.7462 -0.1946 0.2363 0.9624 -4.0452 11.4373)">
		<stop  offset="0" style="stop-color:#97BF0D"/>
		<stop  offset="1" style="stop-color:#00632E"/>
	</linearGradient>
	<path style="opacity:0.83;fill:url(#SVGID_18_);" d="M142.725,50.116c0.299,0,0.597,0.009,0.896,0.012
		C131.78,19.832,111.327,0,111.327,0s-3.39,8.92-5.806,22.723c7.089,7.239,15.201,16.854,22.146,28.529
		C132.578,50.505,137.606,50.116,142.725,50.116z"/>
	
		<linearGradient id="SVGID_19_" gradientUnits="userSpaceOnUse" x1="102.2051" y1="64.957" x2="159.3459" y2="64.957" gradientTransform="matrix(0.7051 -0.3124 0.3883 0.9118 -15.7206 25.2082)">
		<stop  offset="0" style="stop-color:#97BF0D"/>
		<stop  offset="1" style="stop-color:#00632E"/>
	</linearGradient>
	<path style="opacity:0.83;fill:url(#SVGID_19_);" d="M113.32,54.545c4.646-1.438,9.437-2.546,14.347-3.293
		c-6.945-11.675-15.057-21.29-22.146-28.529c-1.078,6.157-1.955,13.285-2.256,21.036C106.649,47.038,110.038,50.636,113.32,54.545z"
		/>
	
		<linearGradient id="SVGID_20_" gradientUnits="userSpaceOnUse" x1="118.3223" y1="55.6738" x2="175.4629" y2="55.6738" gradientTransform="matrix(0.7462 -0.1946 0.2363 0.9624 -4.0452 11.4373)">
		<stop  offset="0" style="stop-color:#97BF0D"/>
		<stop  offset="1" style="stop-color:#00632E"/>
	</linearGradient>
	<path style="opacity:0.83;fill:url(#SVGID_20_);" d="M113.32,54.545c4.646-1.438,9.437-2.546,14.347-3.293
		c-6.945-11.675-15.057-21.29-22.146-28.529c-1.078,6.157-1.955,13.285-2.256,21.036C106.649,47.038,110.038,50.636,113.32,54.545z"
		/>
	
		<linearGradient id="SVGID_21_" gradientUnits="userSpaceOnUse" x1="85.7339" y1="81.125" x2="142.8731" y2="81.125" gradientTransform="matrix(0.6497 -0.4155 0.5219 0.8425 -24.5287 38.67)">
		<stop  offset="0" style="stop-color:#97BF0D"/>
		<stop  offset="1" style="stop-color:#00632E"/>
	</linearGradient>
	<path style="opacity:0.83;fill:url(#SVGID_21_);" d="M103.265,43.759c-0.179,4.622-0.151,9.459,0.166,14.446
		c3.213-1.388,6.512-2.613,9.89-3.66C110.038,50.636,106.649,47.038,103.265,43.759z"/>
	
		<linearGradient id="SVGID_22_" gradientUnits="userSpaceOnUse" x1="102.2061" y1="72.7861" x2="159.3457" y2="72.7861" gradientTransform="matrix(0.7051 -0.3124 0.3883 0.9118 -15.7206 25.2082)">
		<stop  offset="0" style="stop-color:#97BF0D"/>
		<stop  offset="1" style="stop-color:#00632E"/>
	</linearGradient>
	<path style="opacity:0.83;fill:url(#SVGID_22_);" d="M103.265,43.759c-0.179,4.622-0.151,9.459,0.166,14.446
		c3.213-1.388,6.512-2.613,9.89-3.66C110.038,50.636,106.649,47.038,103.265,43.759z"/>
	
		<linearGradient id="SVGID_23_" gradientUnits="userSpaceOnUse" x1="118.3213" y1="65.9668" x2="175.463" y2="65.9668" gradientTransform="matrix(0.7462 -0.1946 0.2363 0.9624 -4.0452 11.4373)">
		<stop  offset="0" style="stop-color:#97BF0D"/>
		<stop  offset="1" style="stop-color:#00632E"/>
	</linearGradient>
	<path style="opacity:0.83;fill:url(#SVGID_23_);" d="M103.265,43.759c-0.179,4.622-0.151,9.459,0.166,14.446
		c3.213-1.388,6.512-2.613,9.89-3.66C110.038,50.636,106.649,47.038,103.265,43.759z"/>
</g>
<g>
	<linearGradient id="SVGID_24_" gradientUnits="userSpaceOnUse" x1="281.6797" y1="128.3398" x2="288.0459" y2="128.3398">
		<stop  offset="0" style="stop-color:#F29400"/>
		<stop  offset="1" style="stop-color:#F8B334"/>
	</linearGradient>
	<path style="fill:url(#SVGID_24_);stroke:#FFFFFF;stroke-miterlimit:10;" d="M288.046,131.764h-6.366v-6.848h6.366V131.764z"/>
	<linearGradient id="SVGID_25_" gradientUnits="userSpaceOnUse" x1="292.5166" y1="117.4746" x2="310.9951" y2="117.4746">
		<stop  offset="0" style="stop-color:#F29400"/>
		<stop  offset="1" style="stop-color:#F8B334"/>
	</linearGradient>
	<path style="fill:url(#SVGID_25_);stroke:#FFFFFF;stroke-miterlimit:10;" d="M310.995,128.226c0,2.359-1.198,3.538-3.595,3.538
		h-11.233c-2.433,0-3.65-1.179-3.65-3.538v-21.504c0-2.358,1.218-3.537,3.65-3.537H307.4c2.396,0,3.595,1.179,3.595,3.537v6.79
		h-6.311v-4.923h-5.801v17.799h5.801v-5.461h6.311V128.226z"/>
	<linearGradient id="SVGID_26_" gradientUnits="userSpaceOnUse" x1="310.2666" y1="117.4746" x2="327.4688" y2="117.4746">
		<stop  offset="0" style="stop-color:#F29400"/>
		<stop  offset="1" style="stop-color:#F8B334"/>
	</linearGradient>
	<path style="fill:url(#SVGID_26_);stroke:#FFFFFF;stroke-miterlimit:10;" d="M327.469,131.764h-17.202v-3.82l9.506-19.467h-8.743
		v-5.292h16.439v3.85l-9.563,19.466h9.563V131.764z"/>
</g>
</svg>
