<svg width="177" height="39" viewBox="0 0 177 39" fill="none" xmlns="http://www.w3.org/2000/svg">
<path d="M15.6557 3.67498L14.2052 7.86676H10.0777L11.5282 3.67498H15.6557ZM8.79421 11.5417H12.9217L11.4712 15.7909H7.3437L8.79421 11.5417ZM17.9643 7.86676L19.4149 3.67498L16.9391 0H12.8116L7.77278 3.67498L6.32226 7.86676H3.36048L2.39221 11.5417H5.03883L3.58831 15.7909H0.968274L0 19.4659H2.30487L0.823984 23.7725H4.58317L6.06406 19.4659H10.1916L8.71067 23.7725H12.4699L13.9507 19.4659H16.9391L17.9074 15.7909H15.2304L16.6809 11.5417H19.3275L20.2958 7.86676H17.9605H17.9643Z" fill="#00FF80"/>
<path d="M19.9844 20.3237L23.2879 17.51C24.8523 19.2327 26.5914 20.1514 28.8697 20.1514C30.6354 20.1514 31.915 19.3207 31.915 18.0574C31.915 17.0813 31.205 16.507 28.528 15.416C25.9383 14.3518 23.6296 12.9469 23.6296 9.99161C23.6296 5.88788 27.2749 3.36133 31.5467 3.36133C34.9642 3.36133 37.326 4.54038 39.0081 6.34725L35.9894 9.39059C34.4781 7.98568 33.1415 7.2392 31.205 7.2392C29.2684 7.2392 28.3001 8.27279 28.3001 9.27575C28.3001 10.34 29.0976 10.7955 31.8011 11.9171C34.5351 13.0388 36.5855 14.4169 36.5855 17.3416C36.5855 21.5601 32.8567 24.0293 28.6685 24.0293C24.8257 24.0293 21.864 22.766 19.9844 20.3275V20.3237Z" fill="white"/>
<path d="M41.8822 8.3529H46.2109L42.11 23.7419H37.7812L41.8822 8.3529ZM47.2931 1.57715L50.9384 3.21175L46.3552 6.65704H42.71L47.2931 1.57715Z" fill="white"/>
<path d="M47.1797 20.9819C47.1797 20.3503 47.2936 19.7493 47.4645 19.0602L49.3137 12.0854H47.4911L48.4859 8.35301H50.3085L51.3604 4.41772H55.6891L54.6373 8.35301H58.2256L57.2308 12.0854H53.6424L51.9337 18.5473C51.8768 18.7769 51.8198 19.064 51.8198 19.2363C51.8198 19.8105 52.1919 20.1551 52.9893 20.1551C53.6728 20.1551 54.4968 19.9828 55.2107 19.6689L54.2158 23.3707C53.3615 23.7726 52.2527 24.0023 51.0832 24.0023C48.4631 24.0023 47.1835 22.6816 47.1835 20.9858L47.1797 20.9819ZM58.199 0.769531H61.5861V0.857579L58.3395 6.74138H56.6308L58.1952 0.769531H58.199Z" fill="white"/>
<path d="M57.6289 16.9624C57.6289 12.3686 61.559 8.06201 66.4573 8.06201C70.9835 8.06201 73.8048 11.0747 73.8048 15.1823C73.8048 19.776 69.8747 24.0826 64.9764 24.0826C60.4502 24.0826 57.6289 21.0661 57.6289 16.9624ZM69.5596 15.2971C69.5596 13.0577 68.2192 11.7944 66.256 11.7944C63.6094 11.7944 61.8703 14.6655 61.8703 16.8475C61.8703 19.0295 63.2107 20.3502 65.1739 20.3502C67.8205 20.3502 69.5596 17.4792 69.5596 15.2971Z" fill="white"/>
<path d="M75.5713 8.35303H80.014L80.6974 18.6009L86.7615 8.35303H91.4016L81.3506 23.8569H77.4205L75.5713 8.35303Z" fill="white"/>
<path d="M94.8221 2.7832H99.1508L96.246 13.6359L102.424 8.3531H108.063L100.689 14.3517L104.019 23.7383H99.1774L97.013 17.2228L94.8221 19.0029L93.569 23.7421H89.2402L94.8221 2.7832Z" fill="white"/>
<path d="M105.386 19.8908C105.386 16.3307 108.264 14.3516 111.962 14.3516C113.614 14.3516 114.981 14.6387 116.265 15.0406L116.322 14.8416C116.409 14.497 116.492 14.1525 116.492 13.6931C116.492 12.6289 115.752 11.8863 113.618 11.8863C112.137 11.8863 110.656 12.2576 109.547 12.717L108.864 9.27167C110.428 8.61324 112.365 8.18066 114.529 8.18066C118.63 8.18066 120.707 9.90331 120.707 12.916C120.707 13.7199 120.567 14.4664 120.366 15.2435L118.118 23.7419H113.929L114.385 21.9618C113.162 23.2825 111.624 24.029 109.828 24.029C107.182 24.029 105.386 22.3064 105.386 19.8947V19.8908ZM115.524 17.9385L115.638 17.5366C114.898 17.2494 113.846 16.9891 112.79 16.9891C110.994 16.9891 109.688 17.9079 109.688 19.4008C109.688 20.3502 110.455 21.0393 111.681 21.0393C113.477 21.0393 115.042 19.6037 115.524 17.9385Z" fill="white"/>
<path d="M123.358 19.1445H127.972L126.749 23.7383H122.136L123.358 19.1445Z" fill="#00FF80"/>
<path d="M134.294 8.35303H138.623L138.198 9.96083C139.28 8.98466 140.647 8.06592 142.356 8.06592C145.09 8.06592 146.855 9.75794 146.855 12.5448C146.855 13.4061 146.601 14.4971 146.343 15.4733L144.152 23.742H139.823L142.071 15.301C142.185 14.8723 142.272 14.2981 142.272 13.9229C142.272 12.6903 141.501 12.028 140.165 12.028C138.456 12.028 137.347 13.2607 136.861 15.0981L134.552 23.7382H130.224L134.294 8.3492V8.35303Z" fill="#00FF80"/>
<path d="M152.433 17.5674C152.573 19.3781 153.655 20.5839 155.934 20.5839C157.073 20.5839 158.068 20.2394 159.321 19.3513L161.314 22.0501C159.947 23.1985 158.041 24.0904 155.447 24.0904C151.062 24.0904 148.385 21.5065 148.385 17.2573C148.385 13.0081 151.973 8.06982 157.441 8.06982C161.398 8.06982 163.676 10.6538 163.676 14.0685C163.676 15.1595 163.391 16.396 162.905 17.5712H152.425L152.433 17.5674ZM152.831 14.8417H159.465C159.548 14.5546 159.605 14.2101 159.605 13.8388C159.605 12.5755 158.865 11.5725 157.099 11.5725C155.136 11.5725 153.541 12.8932 152.827 14.8456L152.831 14.8417Z" fill="#00FF80"/>
<path d="M165.362 20.9817C165.362 20.3501 165.476 19.749 165.647 19.06L167.496 12.0852H165.674L166.669 8.35277H168.491L169.547 4.41748H173.876L172.82 8.35277H176.408L175.413 12.0852H171.825L170.116 18.547C170.059 18.7767 170.002 19.0638 170.002 19.2361C170.002 19.8103 170.375 20.1548 171.172 20.1548C171.855 20.1548 172.679 19.9826 173.393 19.6687L172.398 23.3704C171.544 23.7724 170.435 24.0021 169.266 24.0021C166.646 24.0021 165.366 22.6814 165.366 20.9855L165.362 20.9817Z" fill="#00FF80"/>
<path d="M20.7206 37.2168L21.1383 36.7192C21.761 37.2896 22.361 37.5728 23.1887 37.5728C24.0165 37.5728 24.5215 37.1441 24.5215 36.5469V36.5278C24.5215 35.9689 24.2216 35.6511 22.9647 35.3832C21.5901 35.0807 20.956 34.6329 20.956 33.6414V33.6261C20.956 32.6767 21.7838 31.98 22.9229 31.98C23.7963 31.98 24.419 32.2288 25.0266 32.7226L24.6317 33.2471C24.0773 32.7915 23.5191 32.5925 22.904 32.5925C22.1255 32.5925 21.6319 33.0212 21.6319 33.5648V33.5801C21.6319 34.1505 21.9395 34.4683 23.2571 34.7515C24.5899 35.0425 25.205 35.5363 25.205 36.4589V36.4742C25.205 37.5078 24.3507 38.1815 23.1622 38.1815C22.2129 38.1815 21.4345 37.8638 20.7168 37.2168H20.7206Z" fill="white"/>
<path d="M26.9209 32.064H29.1612C30.513 32.064 31.4015 32.7875 31.4015 33.978V33.9933C31.4015 35.2949 30.3232 35.9648 29.0511 35.9648H27.5968V38.0932H26.9209V32.064ZM29.0739 35.3485C30.0649 35.3485 30.7143 34.8125 30.7143 34.0201V34.0048C30.7143 33.1435 30.0725 32.6956 29.1081 32.6956H27.5968V35.3485H29.0739Z" fill="white"/>
<path d="M32.9629 32.064H37.2879V32.6841H33.6388V34.7436H36.9043V35.3638H33.6388V37.4731H37.3296V38.0932H32.9629V32.064Z" fill="white"/>
<path d="M38.7646 35.0962V35.0808C38.7646 33.3735 40.0291 31.9609 41.791 31.9609C42.877 31.9609 43.5263 32.3476 44.1224 32.918L43.6592 33.4194C43.1542 32.9371 42.5922 32.5926 41.7796 32.5926C40.4544 32.5926 39.4633 33.6798 39.4633 35.0655V35.0847C39.4633 36.4819 40.462 37.5729 41.7796 37.5729C42.5998 37.5729 43.139 37.2552 43.7123 36.704L44.1566 37.1442C43.5339 37.7835 42.8504 38.2046 41.7644 38.2046C40.0367 38.2046 38.7646 36.8341 38.7646 35.1038V35.0962Z" fill="white"/>
<path d="M45.7363 32.064H46.4122V38.0932H45.7363V32.064Z" fill="white"/>
<path d="M50.7185 32.022H51.3527L54.079 38.0972H53.3538L52.6513 36.5047H49.3933L48.6833 38.0972H47.9922L50.7185 32.022ZM52.3855 35.8922L51.0261 32.8144L49.6591 35.8922H52.3855Z" fill="white"/>
<path d="M55.5859 32.064H56.2618V37.4654H59.6299V38.0932H55.5859V32.064Z" fill="white"/>
<path d="M61.2744 32.064H61.9503V38.0932H61.2744V32.064Z" fill="white"/>
<path d="M63.6513 37.2168L64.0689 36.7192C64.6917 37.2896 65.2916 37.5728 66.1194 37.5728C66.9472 37.5728 67.4522 37.1441 67.4522 36.5469V36.5278C67.4522 35.9689 67.1522 35.6511 65.8954 35.3832C64.5208 35.0807 63.8867 34.6329 63.8867 33.6414V33.6261C63.8867 32.6767 64.7145 31.98 65.8536 31.98C66.727 31.98 67.3497 32.2288 67.9572 32.7226L67.5623 33.2471C67.0079 32.7915 66.4498 32.5925 65.8346 32.5925C65.0562 32.5925 64.5626 33.0212 64.5626 33.5648V33.5801C64.5626 34.1505 64.8701 34.4683 66.1878 34.7515C67.5206 35.0425 68.1357 35.5363 68.1357 36.4589V36.4742C68.1357 37.5078 67.2813 38.1815 66.0928 38.1815C65.1435 38.1815 64.3651 37.8638 63.6475 37.2168H63.6513Z" fill="white"/>
<path d="M71.3065 32.6918H69.2979V32.064H73.9987V32.6918H71.99V38.0932H71.3065V32.6918Z" fill="white"/>
<path d="M75.5938 32.0641H79.9187V32.6842H76.2696V34.7437H79.5352V35.3639H76.2696V37.4732H79.9605V38.0933H75.5938V32.0641ZM78.3467 30.418L79.0226 30.728L78.0391 31.5281H77.4923L78.3467 30.418Z" fill="white"/>
<path d="M84.5547 32.064H85.1888L88.9594 36.8989V32.064H89.6163V38.0932H89.0771L85.2154 33.1473V38.0932H84.5585V32.064H84.5547Z" fill="white"/>
<path d="M93.8543 32.022H94.4884L97.2148 38.0972H96.4895L95.787 36.5047H92.5291L91.819 38.0972H91.1279L93.8543 32.022ZM95.5212 35.8922L94.1619 32.8144L92.7949 35.8922H95.5212Z" fill="white"/>
<path d="M101.243 37.2168L101.661 36.7192C102.283 37.2896 102.883 37.5728 103.711 37.5728C104.539 37.5728 105.044 37.1441 105.044 36.5469V36.5278C105.044 35.9689 104.744 35.6511 103.487 35.3832C102.113 35.0807 101.478 34.6329 101.478 33.6414V33.6261C101.478 32.6767 102.306 31.98 103.445 31.98C104.319 31.98 104.941 32.2288 105.549 32.7226L105.154 33.2471C104.6 32.7915 104.042 32.5925 103.426 32.5925C102.648 32.5925 102.154 33.0212 102.154 33.5648V33.5801C102.154 34.1505 102.462 34.4683 103.78 34.7515C105.112 35.0425 105.727 35.5363 105.727 36.4589V36.4742C105.727 37.5078 104.873 38.1815 103.685 38.1815C102.735 38.1815 101.957 37.8638 101.239 37.2168H101.243Z" fill="white"/>
<path d="M107.497 32.0641H108.173V38.0933H107.497V32.0641ZM108.42 30.418L109.096 30.728L108.112 31.5281H107.565L108.42 30.418Z" fill="white"/>
<path d="M111.845 32.6918H109.836V32.064H114.537V32.6918H112.528V38.0932H111.845V32.6918Z" fill="white"/>
<path d="M116.14 32.064H120.465V32.6841H116.816V34.7436H120.081V35.3638H116.816V37.4731H120.506V38.0932H116.14V32.064ZM118.619 31.528H118.004L117.062 30.5098H117.678L118.319 31.0266L118.961 30.5098H119.561L118.619 31.528Z" fill="white"/>
</svg>
